G04 #@! TF.FileFunction,Soldermask,Bot*
%FSLAX46Y46*%
G04 Gerber Fmt 4.6, Leading zero omitted, Abs format (unit mm)*
G04 Created by KiCad (PCBNEW 4.0.7+dfsg1-1~bpo9+1) date Tue Mar 20 02:19:58 2018*
%MOMM*%
%LPD*%
G01*
G04 APERTURE LIST*
%ADD10C,0.100000*%
%ADD11C,0.150000*%
%ADD12R,2.400000X2.400000*%
%ADD13C,2.400000*%
%ADD14O,2.144980X2.899360*%
%ADD15O,2.147520X2.899360*%
%ADD16C,3.400000*%
%ADD17R,2.400000X2.398980*%
%ADD18R,2.398980X2.400000*%
%ADD19O,2.381200X4.362400*%
%ADD20R,2.500000X2.500000*%
%ADD21C,2.500000*%
%ADD22C,6.400000*%
G04 APERTURE END LIST*
D10*
D11*
X76000000Y0D02*
X76000000Y-50000000D01*
X0Y-50000000D02*
X76000000Y-50000000D01*
X0Y0D02*
X0Y-50000000D01*
X0Y0D02*
X76000000Y0D01*
D12*
X12526000Y-44196000D03*
D13*
X17526000Y-44196000D03*
D14*
X19812000Y-32004000D03*
D15*
X16412000Y-32004000D03*
X13012000Y-32004000D03*
D16*
X25412000Y-28004000D03*
X7412000Y-28004000D03*
D13*
X9690000Y-19350000D03*
D17*
X19850000Y-19350000D03*
D12*
X16508000Y-5466000D03*
D13*
X16508000Y-10466000D03*
D12*
X59908000Y-9766000D03*
D13*
X59908000Y-4766000D03*
D14*
X56400000Y-25210000D03*
D15*
X59800000Y-25210000D03*
X63200000Y-25210000D03*
D16*
X50800000Y-29210000D03*
X68800000Y-29210000D03*
D13*
X66518000Y-17816000D03*
D17*
X56358000Y-17816000D03*
D13*
X51108000Y-17816000D03*
D18*
X51108000Y-7656000D03*
D13*
X25008000Y-15516000D03*
D18*
X25008000Y-5356000D03*
D19*
X43508000Y-8216000D03*
X38508000Y-8216000D03*
X33508000Y-8216000D03*
X34808000Y-42566000D03*
X39808000Y-42566000D03*
X44808000Y-42566000D03*
D20*
X46008000Y-16266000D03*
D21*
X40908000Y-16266000D03*
X30708000Y-16266000D03*
X35808000Y-16266000D03*
D12*
X67458000Y-12016000D03*
D13*
X72458000Y-12016000D03*
D12*
X5550000Y-19350000D03*
D13*
X5550000Y-14350000D03*
D12*
X52058000Y-40016000D03*
D13*
X52058000Y-44416000D03*
D12*
X26308000Y-44666000D03*
D13*
X26308000Y-40266000D03*
X33358000Y-23556000D03*
X33358000Y-33716000D03*
X43108000Y-23656000D03*
X43108000Y-33816000D03*
D12*
X61808000Y-41566000D03*
D13*
X61808000Y-46566000D03*
D22*
X71000000Y-5000000D03*
X71000000Y-45000000D03*
X5000000Y-45000000D03*
X5000000Y-5000000D03*
M02*
