<?xml version="1.0" standalone="no"?>
 <!DOCTYPE svg PUBLIC "-//W3C//DTD SVG 1.1//EN" 
 "http://www.w3.org/Graphics/SVG/1.1/DTD/svg11.dtd"> 
<svg xmlns="http://www.w3.org/2000/svg" version="1.1" 
    width="27.94cm" height="21.59cm" viewBox="0 0 110000 85000 ">
<title>SVG Picture created as PSU-B.Cu.svg date 2018/03/20 02:20:52 </title>
  <desc>Picture generated by PCBNEW </desc>
<g style="fill:#000000; fill-opacity:1;stroke:#000000; stroke-opacity:1;
stroke-linecap:round; stroke-linejoin:round; "
 transform="translate(0 0) scale(1 1)">
</g>
<g style="fill:#000000; fill-opacity:0.0; 
stroke:#000000; stroke-width:-0.000393701; stroke-opacity:1; 
stroke-linecap:round; stroke-linejoin:round;">
</g>
<g style="fill:#000000; fill-opacity:1.0; 
stroke:#000000; stroke-width:39.3701; stroke-opacity:1; 
stroke-linecap:round; stroke-linejoin:round;">
<rect x="-1998.03" y="-1998.03" width="34287.6" height="23715.4" rx="0" />
</g>
<g style="fill:#FFFFFF; fill-opacity:1.0; 
stroke:#FFFFFF; stroke-width:39.3701; stroke-opacity:1; 
stroke-linecap:round; stroke-linejoin:round;">
</g>
<g style="fill:#FFFFFF; fill-opacity:0.0; 
stroke:#FFFFFF; stroke-width:39.3701; stroke-opacity:1; 
stroke-linecap:round; stroke-linejoin:round;">
</g>
<g style="fill:#FFFFFF; fill-opacity:0.0; 
stroke:#FFFFFF; stroke-width:118.11; stroke-opacity:1; 
stroke-linecap:round; stroke-linejoin:round;">
<path d="M3268 3535
L2795 4244
" />
<path d="M2795 3535
L3268 4244
" />
<path d="M2289 3873
L2525 3873
" />
<path d="M2525 4244
L2525 3535
L2188 3535
" />
<path d="M1918 3974
L1378 3974
" />
<path d="M1108 3535
L669 3535
L905 3805
L804 3805
L737 3839
L703 3873
L669 3940
L669 4109
L703 4176
L737 4210
L804 4244
L1007 4244
L1074 4210
L1108 4176
" />
</g>
<g style="fill:#FFFFFF; fill-opacity:0.0; 
stroke:#FFFFFF; stroke-width:59.0551; stroke-opacity:1; 
stroke-linecap:round; stroke-linejoin:round;">
<path d="M29921 0
L29921 19685
" />
<path d="M0 19685
L29921 19685
" />
<path d="M0 0
L0 19685
" />
<path d="M0 0
L29921 0
" />
</g>
<g style="fill:#FFFFFF; fill-opacity:0.0; 
stroke:#FFFFFF; stroke-width:0; stroke-opacity:1; 
stroke-linecap:round; stroke-linejoin:round;">
</g>
<g style="fill:#FFFFFF; fill-opacity:1.0; 
stroke:#FFFFFF; stroke-width:0; stroke-opacity:1; 
stroke-linecap:round; stroke-linejoin:round;">
<polyline style="fill-rule:evenodd;"
points="4537,17793
4537,17006
5325,17006
5325,17793
4537,17793
" /> 
<circle cx="6900" cy="17400" r="393.701" /> 
</g>
<g style="fill:#FFFFFF; fill-opacity:1.0; 
stroke:#FFFFFF; stroke-width:39.3701; stroke-opacity:1; 
stroke-linecap:round; stroke-linejoin:round;">
</g>
<g style="fill:#FFFFFF; fill-opacity:1.0; 
stroke:#FFFFFF; stroke-width:687; stroke-opacity:1; 
stroke-linecap:round; stroke-linejoin:round;">
</g>
<g style="fill:#FFFFFF; fill-opacity:0.0; 
stroke:#FFFFFF; stroke-width:687; stroke-opacity:1; 
stroke-linecap:round; stroke-linejoin:round;">
<path d="M7800 12451
L7800 12748
" />
</g>
<g style="fill:#FFFFFF; fill-opacity:0.0; 
stroke:#FFFFFF; stroke-width:688; stroke-opacity:1; 
stroke-linecap:round; stroke-linejoin:round;">
<path d="M6461 12452
L6461 12748
" />
<path d="M5122 12452
L5122 12748
" />
</g>
<g style="fill:#FFFFFF; fill-opacity:1.0; 
stroke:#FFFFFF; stroke-width:0; stroke-opacity:1; 
stroke-linecap:round; stroke-linejoin:round;">
<circle cx="10004.7" cy="11025.2" r="590.551" /> 
</g>
<g style="fill:#FFFFFF; fill-opacity:1.0; 
stroke:#FFFFFF; stroke-width:39.3701; stroke-opacity:1; 
stroke-linecap:round; stroke-linejoin:round;">
</g>
<g style="fill:#FFFFFF; fill-opacity:1.0; 
stroke:#FFFFFF; stroke-width:0; stroke-opacity:1; 
stroke-linecap:round; stroke-linejoin:round;">
<circle cx="2918.11" cy="11025.2" r="590.551" /> 
</g>
<g style="fill:#FFFFFF; fill-opacity:1.0; 
stroke:#FFFFFF; stroke-width:39.3701; stroke-opacity:1; 
stroke-linecap:round; stroke-linejoin:round;">
</g>
<g style="fill:#FFFFFF; fill-opacity:1.0; 
stroke:#FFFFFF; stroke-width:0; stroke-opacity:1; 
stroke-linecap:round; stroke-linejoin:round;">
<circle cx="3814.96" cy="7618.11" r="393.701" /> 
</g>
<g style="fill:#FFFFFF; fill-opacity:1.0; 
stroke:#FFFFFF; stroke-width:39.3701; stroke-opacity:1; 
stroke-linecap:round; stroke-linejoin:round;">
</g>
<g style="fill:#FFFFFF; fill-opacity:1.0; 
stroke:#FFFFFF; stroke-width:0; stroke-opacity:1; 
stroke-linecap:round; stroke-linejoin:round;">
<polyline style="fill-rule:evenodd;"
points="7421,8011
7421,7224
8208,7224
8208,8011
7421,8011
" /> 
<polyline style="fill-rule:evenodd;"
points="6105,1758
6892,1758
6892,2545
6105,2545
6105,1758
" /> 
<circle cx="6499.21" cy="4120.47" r="393.701" /> 
</g>
<g style="fill:#FFFFFF; fill-opacity:1.0; 
stroke:#FFFFFF; stroke-width:39.3701; stroke-opacity:1; 
stroke-linecap:round; stroke-linejoin:round;">
</g>
<g style="fill:#FFFFFF; fill-opacity:1.0; 
stroke:#FFFFFF; stroke-width:0; stroke-opacity:1; 
stroke-linecap:round; stroke-linejoin:round;">
<polyline style="fill-rule:evenodd;"
points="23979,4238
23192,4238
23192,3451
23979,3451
23979,4238
" /> 
<circle cx="23585.8" cy="1876.38" r="393.701" /> 
</g>
<g style="fill:#FFFFFF; fill-opacity:1.0; 
stroke:#FFFFFF; stroke-width:39.3701; stroke-opacity:1; 
stroke-linecap:round; stroke-linejoin:round;">
</g>
<g style="fill:#FFFFFF; fill-opacity:1.0; 
stroke:#FFFFFF; stroke-width:687; stroke-opacity:1; 
stroke-linecap:round; stroke-linejoin:round;">
</g>
<g style="fill:#FFFFFF; fill-opacity:0.0; 
stroke:#FFFFFF; stroke-width:687; stroke-opacity:1; 
stroke-linecap:round; stroke-linejoin:round;">
<path d="M22204 10073
L22204 9776
" />
</g>
<g style="fill:#FFFFFF; fill-opacity:0.0; 
stroke:#FFFFFF; stroke-width:688; stroke-opacity:1; 
stroke-linecap:round; stroke-linejoin:round;">
<path d="M23543 10073
L23543 9777
" />
<path d="M24881 10073
L24881 9777
" />
</g>
<g style="fill:#FFFFFF; fill-opacity:1.0; 
stroke:#FFFFFF; stroke-width:0; stroke-opacity:1; 
stroke-linecap:round; stroke-linejoin:round;">
<circle cx="20000" cy="11500" r="590.551" /> 
</g>
<g style="fill:#FFFFFF; fill-opacity:1.0; 
stroke:#FFFFFF; stroke-width:39.3701; stroke-opacity:1; 
stroke-linecap:round; stroke-linejoin:round;">
</g>
<g style="fill:#FFFFFF; fill-opacity:1.0; 
stroke:#FFFFFF; stroke-width:0; stroke-opacity:1; 
stroke-linecap:round; stroke-linejoin:round;">
<circle cx="27086.6" cy="11500" r="590.551" /> 
</g>
<g style="fill:#FFFFFF; fill-opacity:1.0; 
stroke:#FFFFFF; stroke-width:39.3701; stroke-opacity:1; 
stroke-linecap:round; stroke-linejoin:round;">
</g>
<g style="fill:#FFFFFF; fill-opacity:1.0; 
stroke:#FFFFFF; stroke-width:0; stroke-opacity:1; 
stroke-linecap:round; stroke-linejoin:round;">
<circle cx="26188.2" cy="7014.17" r="393.701" /> 
</g>
<g style="fill:#FFFFFF; fill-opacity:1.0; 
stroke:#FFFFFF; stroke-width:39.3701; stroke-opacity:1; 
stroke-linecap:round; stroke-linejoin:round;">
</g>
<g style="fill:#FFFFFF; fill-opacity:1.0; 
stroke:#FFFFFF; stroke-width:0; stroke-opacity:1; 
stroke-linecap:round; stroke-linejoin:round;">
<polyline style="fill-rule:evenodd;"
points="22581,6620
22581,7407
21794,7407
21794,6620
22581,6620
" /> 
<circle cx="20121.3" cy="7014.17" r="393.701" /> 
</g>
<g style="fill:#FFFFFF; fill-opacity:1.0; 
stroke:#FFFFFF; stroke-width:39.3701; stroke-opacity:1; 
stroke-linecap:round; stroke-linejoin:round;">
</g>
<g style="fill:#FFFFFF; fill-opacity:1.0; 
stroke:#FFFFFF; stroke-width:0; stroke-opacity:1; 
stroke-linecap:round; stroke-linejoin:round;">
<polyline style="fill-rule:evenodd;"
points="20514,3407
19727,3407
19727,2620
20514,2620
20514,3407
" /> 
<circle cx="9845.67" cy="6108.66" r="393.701" /> 
</g>
<g style="fill:#FFFFFF; fill-opacity:1.0; 
stroke:#FFFFFF; stroke-width:39.3701; stroke-opacity:1; 
stroke-linecap:round; stroke-linejoin:round;">
</g>
<g style="fill:#FFFFFF; fill-opacity:1.0; 
stroke:#FFFFFF; stroke-width:0; stroke-opacity:1; 
stroke-linecap:round; stroke-linejoin:round;">
<polyline style="fill-rule:evenodd;"
points="10239,2502
9452,2502
9452,1714
10239,1714
10239,2502
" /> 
</g>
<g style="fill:#FFFFFF; fill-opacity:1.0; 
stroke:#FFFFFF; stroke-width:780; stroke-opacity:1; 
stroke-linecap:round; stroke-linejoin:round;">
</g>
<g style="fill:#FFFFFF; fill-opacity:0.0; 
stroke:#FFFFFF; stroke-width:780; stroke-opacity:1; 
stroke-linecap:round; stroke-linejoin:round;">
<path d="M17129 3624
L17129 2844
" />
<path d="M15160 3624
L15160 2844
" />
<path d="M13192 3624
L13192 2844
" />
<path d="M13703 16368
L13703 17148
" />
<path d="M15672 16368
L15672 17148
" />
<path d="M17640 16368
L17640 17148
" />
</g>
<g style="fill:#FFFFFF; fill-opacity:0.0; 
stroke:#FFFFFF; stroke-width:0; stroke-opacity:1; 
stroke-linecap:round; stroke-linejoin:round;">
</g>
<g style="fill:#FFFFFF; fill-opacity:1.0; 
stroke:#FFFFFF; stroke-width:0; stroke-opacity:1; 
stroke-linecap:round; stroke-linejoin:round;">
<polyline style="fill-rule:evenodd;"
points="18526,5990
18526,6817
17700,6817
17700,5990
18526,5990
" /> 
<circle cx="16105.5" cy="6403.94" r="413.386" /> 
</g>
<g style="fill:#FFFFFF; fill-opacity:1.0; 
stroke:#FFFFFF; stroke-width:39.3701; stroke-opacity:1; 
stroke-linecap:round; stroke-linejoin:round;">
</g>
<g style="fill:#FFFFFF; fill-opacity:1.0; 
stroke:#FFFFFF; stroke-width:0; stroke-opacity:1; 
stroke-linecap:round; stroke-linejoin:round;">
<circle cx="12089.8" cy="6403.94" r="413.386" /> 
</g>
<g style="fill:#FFFFFF; fill-opacity:1.0; 
stroke:#FFFFFF; stroke-width:39.3701; stroke-opacity:1; 
stroke-linecap:round; stroke-linejoin:round;">
</g>
<g style="fill:#FFFFFF; fill-opacity:1.0; 
stroke:#FFFFFF; stroke-width:0; stroke-opacity:1; 
stroke-linecap:round; stroke-linejoin:round;">
<circle cx="14097.6" cy="6403.94" r="413.386" /> 
</g>
<g style="fill:#FFFFFF; fill-opacity:1.0; 
stroke:#FFFFFF; stroke-width:39.3701; stroke-opacity:1; 
stroke-linecap:round; stroke-linejoin:round;">
</g>
<g style="fill:#FFFFFF; fill-opacity:1.0; 
stroke:#FFFFFF; stroke-width:0; stroke-opacity:1; 
stroke-linecap:round; stroke-linejoin:round;">
<polyline style="fill-rule:evenodd;"
points="26164,5124
26164,4337
26951,4337
26951,5124
26164,5124
" /> 
<circle cx="28526.8" cy="4730.71" r="393.701" /> 
</g>
<g style="fill:#FFFFFF; fill-opacity:1.0; 
stroke:#FFFFFF; stroke-width:39.3701; stroke-opacity:1; 
stroke-linecap:round; stroke-linejoin:round;">
</g>
<g style="fill:#FFFFFF; fill-opacity:1.0; 
stroke:#FFFFFF; stroke-width:0; stroke-opacity:1; 
stroke-linecap:round; stroke-linejoin:round;">
<polyline style="fill-rule:evenodd;"
points="2578,8011
1791,8011
1791,7224
2578,7224
2578,8011
" /> 
<circle cx="2185.04" cy="5649.61" r="393.701" /> 
</g>
<g style="fill:#FFFFFF; fill-opacity:1.0; 
stroke:#FFFFFF; stroke-width:39.3701; stroke-opacity:1; 
stroke-linecap:round; stroke-linejoin:round;">
</g>
<g style="fill:#FFFFFF; fill-opacity:1.0; 
stroke:#FFFFFF; stroke-width:0; stroke-opacity:1; 
stroke-linecap:round; stroke-linejoin:round;">
<polyline style="fill-rule:evenodd;"
points="20101,16148
20101,15360
20888,15360
20888,16148
20101,16148
" /> 
<circle cx="20495.3" cy="17486.6" r="393.701" /> 
</g>
<g style="fill:#FFFFFF; fill-opacity:1.0; 
stroke:#FFFFFF; stroke-width:39.3701; stroke-opacity:1; 
stroke-linecap:round; stroke-linejoin:round;">
</g>
<g style="fill:#FFFFFF; fill-opacity:1.0; 
stroke:#FFFFFF; stroke-width:0; stroke-opacity:1; 
stroke-linecap:round; stroke-linejoin:round;">
<polyline style="fill-rule:evenodd;"
points="10751,17191
10751,17978
9963,17978
9963,17191
10751,17191
" /> 
<circle cx="10357.5" cy="15852.8" r="393.701" /> 
</g>
<g style="fill:#FFFFFF; fill-opacity:1.0; 
stroke:#FFFFFF; stroke-width:39.3701; stroke-opacity:1; 
stroke-linecap:round; stroke-linejoin:round;">
</g>
<g style="fill:#FFFFFF; fill-opacity:1.0; 
stroke:#FFFFFF; stroke-width:0; stroke-opacity:1; 
stroke-linecap:round; stroke-linejoin:round;">
<circle cx="13133.1" cy="9274.02" r="393.701" /> 
</g>
<g style="fill:#FFFFFF; fill-opacity:1.0; 
stroke:#FFFFFF; stroke-width:39.3701; stroke-opacity:1; 
stroke-linecap:round; stroke-linejoin:round;">
</g>
<g style="fill:#FFFFFF; fill-opacity:1.0; 
stroke:#FFFFFF; stroke-width:0; stroke-opacity:1; 
stroke-linecap:round; stroke-linejoin:round;">
<circle cx="13133.1" cy="13274" r="393.701" /> 
</g>
<g style="fill:#FFFFFF; fill-opacity:1.0; 
stroke:#FFFFFF; stroke-width:39.3701; stroke-opacity:1; 
stroke-linecap:round; stroke-linejoin:round;">
</g>
<g style="fill:#FFFFFF; fill-opacity:1.0; 
stroke:#FFFFFF; stroke-width:0; stroke-opacity:1; 
stroke-linecap:round; stroke-linejoin:round;">
<circle cx="16971.7" cy="9313.39" r="393.701" /> 
</g>
<g style="fill:#FFFFFF; fill-opacity:1.0; 
stroke:#FFFFFF; stroke-width:39.3701; stroke-opacity:1; 
stroke-linecap:round; stroke-linejoin:round;">
</g>
<g style="fill:#FFFFFF; fill-opacity:1.0; 
stroke:#FFFFFF; stroke-width:0; stroke-opacity:1; 
stroke-linecap:round; stroke-linejoin:round;">
<circle cx="16971.7" cy="13313.4" r="393.701" /> 
</g>
<g style="fill:#FFFFFF; fill-opacity:1.0; 
stroke:#FFFFFF; stroke-width:39.3701; stroke-opacity:1; 
stroke-linecap:round; stroke-linejoin:round;">
</g>
<g style="fill:#FFFFFF; fill-opacity:1.0; 
stroke:#FFFFFF; stroke-width:0; stroke-opacity:1; 
stroke-linecap:round; stroke-linejoin:round;">
<polyline style="fill-rule:evenodd;"
points="23940,15970
24727,15970
24727,16758
23940,16758
23940,15970
" /> 
<circle cx="24333.9" cy="18333.1" r="393.701" /> 
</g>
<g style="fill:#FFFFFF; fill-opacity:1.0; 
stroke:#FFFFFF; stroke-width:39.3701; stroke-opacity:1; 
stroke-linecap:round; stroke-linejoin:round;">
</g>
<g style="fill:#FFFFFF; fill-opacity:1.0; 
stroke:#FFFFFF; stroke-width:0; stroke-opacity:1; 
stroke-linecap:round; stroke-linejoin:round;">
<circle cx="27952.8" cy="1968.5" r="1181.1" /> 
</g>
<g style="fill:#FFFFFF; fill-opacity:1.0; 
stroke:#FFFFFF; stroke-width:39.3701; stroke-opacity:1; 
stroke-linecap:round; stroke-linejoin:round;">
</g>
<g style="fill:#FFFFFF; fill-opacity:1.0; 
stroke:#FFFFFF; stroke-width:0; stroke-opacity:1; 
stroke-linecap:round; stroke-linejoin:round;">
<circle cx="27952.8" cy="17716.5" r="1181.1" /> 
</g>
<g style="fill:#FFFFFF; fill-opacity:1.0; 
stroke:#FFFFFF; stroke-width:39.3701; stroke-opacity:1; 
stroke-linecap:round; stroke-linejoin:round;">
</g>
<g style="fill:#FFFFFF; fill-opacity:1.0; 
stroke:#FFFFFF; stroke-width:0; stroke-opacity:1; 
stroke-linecap:round; stroke-linejoin:round;">
<circle cx="1968.5" cy="17716.5" r="1181.1" /> 
</g>
<g style="fill:#FFFFFF; fill-opacity:1.0; 
stroke:#FFFFFF; stroke-width:39.3701; stroke-opacity:1; 
stroke-linecap:round; stroke-linejoin:round;">
</g>
<g style="fill:#FFFFFF; fill-opacity:1.0; 
stroke:#FFFFFF; stroke-width:0; stroke-opacity:1; 
stroke-linecap:round; stroke-linejoin:round;">
<circle cx="1968.5" cy="1968.5" r="1181.1" /> 
</g>
<g style="fill:#FFFFFF; fill-opacity:1.0; 
stroke:#FFFFFF; stroke-width:39.3701; stroke-opacity:1; 
stroke-linecap:round; stroke-linejoin:round;">
</g>
<g style="fill:#FFFFFF; fill-opacity:1.0; 
stroke:#FFFFFF; stroke-width:1181.1; stroke-opacity:1; 
stroke-linecap:round; stroke-linejoin:round;">
</g>
<g style="fill:#FFFFFF; fill-opacity:0.0; 
stroke:#FFFFFF; stroke-width:1181.1; stroke-opacity:1; 
stroke-linecap:round; stroke-linejoin:round;">
<path d="M17640 16758
L18428 17545
" />
<path d="M18428 17545
L20495 17545
" />
<path d="M22188 7014
L20121 7014
" />
<path d="M22188 7014
L22188 9908
" />
<path d="M22188 9908
L22204 9925
" />
<path d="M22204 17529
L22204 16403
" />
<path d="M22204 16403
L22204 9925
" />
<path d="M24333 16364
L22896 16364
" />
<path d="M22896 16364
L22857 16403
" />
<path d="M22857 16403
L22204 16403
" />
<path d="M20495 17545
L22188 17545
" />
<path d="M22188 17545
L22204 17529
" />
<path d="M22200 9920
L22204 9925
" />
<path d="M24881 9925
L24881 4770
" />
<path d="M24881 4770
L24881 4097
" />
<path d="M24921 4730
L24881 4770
" />
<path d="M26558 4730
L24921 4730
" />
<path d="M24881 4097
L24629 3844
" />
<path d="M24629 3844
L23585 3844
" />
<path d="M23585 3844
L20121 3844
" />
<path d="M20121 4396
L20121 3844
" />
<path d="M20121 3844
L20121 3014
" />
<path d="M18113 6403
L20121 4396
" />
</g>
<g style="fill:#FFFFFF; fill-opacity:0.0; 
stroke:#FFFFFF; stroke-width:984.252; stroke-opacity:1; 
stroke-linecap:round; stroke-linejoin:round;">
<path d="M6499 4120
L6499 7578
" />
<path d="M6499 7578
L6499 12562
" />
<path d="M3814 7618
L6459 7618
" />
<path d="M6459 7618
L6499 7578
" />
<path d="M2185 7618
L3814 7618
" />
<path d="M6499 12562
L6461 12600
" />
</g>
<g style="fill:#FFFFFF; fill-opacity:0.0; 
stroke:#FFFFFF; stroke-width:1181.1; stroke-opacity:1; 
stroke-linecap:round; stroke-linejoin:round;">
<path d="M11678 5897
L9881 4100
" />
<path d="M12092 6400
L11678 5986
" />
<path d="M11678 5986
L11678 5897
" />
<path d="M9881 4100
L6761 4100
" />
<path d="M6761 4100
L6400 4100
" />
<path d="M6461 4161
L6400 4100
" />
<path d="M6900 17400
L7789 17400
" />
<path d="M7789 17400
L7800 17389
" />
</g>
<g style="fill:#FFFFFF; fill-opacity:0.0; 
stroke:#FFFFFF; stroke-width:984.252; stroke-opacity:1; 
stroke-linecap:round; stroke-linejoin:round;">
<path d="M7946 6108
L9845 6108
" />
<path d="M7814 7618
L7814 6240
" />
<path d="M7814 6240
L7946 6108
" />
<path d="M7800 12600
L7800 7633
" />
<path d="M7800 7633
L7814 7618
" />
<path d="M7800 12600
L7800 14076
" />
<path d="M7800 14076
L7800 17389
" />
</g>
<g style="fill:#FFFFFF; fill-opacity:0.0; 
stroke:#FFFFFF; stroke-width:1181.1; stroke-opacity:1; 
stroke-linecap:round; stroke-linejoin:round;">
<path d="M13703 16758
L12975 17486
" />
<path d="M12975 17486
L10081 17486
" />
<path d="M7916 17506
L10160 17506
" />
<path d="M7800 17389
L7916 17506
" />
<path d="M16105 6403
L17089 5419
" />
<path d="M17089 5419
L17089 2998
" />
<path d="M13192 5439
L13192 2978
" />
<path d="M13152 5459
L14097 6403
" />
<path d="M19800 14527
L18185 14527
" />
<path d="M18185 14527
L16971 13313
" />
<path d="M20495 15222
L19800 14527
" />
<path d="M20495 15813
L20495 15222
" />
<path d="M10081 15754
L10652 15754
" />
<path d="M10652 15754
L13133 13274
" />
</g>
<g style="fill:#FFFFFF; fill-opacity:1.0; 
stroke:#FFFFFF; stroke-width:98.4252; stroke-opacity:1; 
stroke-linecap:round; stroke-linejoin:round;">
<polyline style="fill-rule:evenodd;"
points="26476,980
26210,1620
26210,2313
26474,2954
26964,3444
27604,3710
28297,3710
28938,3446
29330,3054
29330,16631
28940,16240
28300,15974
27607,15974
26967,16238
26476,16728
26210,17368
26210,18061
26474,18702
26866,19094
3054,19094
3444,18704
3710,18064
3710,17371
3446,16730
2956,16240
2316,15974
1623,15974
982,16238
590,16630
590,11253
1766,11253
1941,11676
2264,12000
2688,12176
3146,12176
3569,12002
3893,11678
4069,11255
4069,10797
3894,10373
3571,10049
3148,9873
2690,9873
2266,10048
1942,10372
1766,10795
1766,11253
590,11253
590,7618
1131,7618
1212,8021
1224,8039
1258,8219
1381,8410
1568,8538
1762,8577
1782,8591
2185,8671
5446,8671
5446,12409
5408,12600
5488,13003
5716,13344
6058,13572
6071,13575
6115,13604
6461,13673
6746,13616
6746,16278
6459,16336
6085,16585
5836,16959
5748,17400
5836,17840
6085,18214
6459,18463
6900,18551
7447,18551
7475,18570
7916,18657
10160,18657
10259,18638
12975,18638
13416,18550
13789,18300
14030,18060
14067,18053
14376,17847
14582,17538
14600,17449
14767,17198
14855,16758
14767,16317
14600,16066
14582,15978
14376,15669
14067,15463
13703,15390
13339,15463
13031,15669
12825,15978
12817,16015
12498,16335
11700,16335
13947,14088
14196,13714
14284,13274
14196,12833
13947,12459
13573,12210
13133,12122
12692,12210
12318,12459
10175,14602
10081,14602
9641,14690
9267,14940
9017,15313
8930,15754
9017,16195
9124,16354
8853,16354
8853,11253
9027,11676
9351,12000
9774,12176
10232,12176
10656,12002
10980,11678
11156,11255
11156,10797
10981,10373
10657,10049
10234,9873
9776,9873
9353,10048
9029,10372
8853,10795
8853,11024
8853,7693
8868,7618
8868,7161
9845,7161
10248,7081
10590,6853
10744,6622
10864,6800
11277,7214
11651,7463
12092,7551
12532,7463
12906,7214
13055,6990
13283,7218
13656,7467
14097,7555
14538,7467
14911,7218
15101,6934
15291,7218
15664,7467
16105,7555
16546,7467
16919,7218
17147,6990
17165,7018
17167,7025
17289,7216
17477,7344
17492,7347
17672,7467
18113,7555
18554,7467
18728,7351
18734,7350
18925,7227
18940,7205
18996,7149
19057,7454
19306,7828
19680,8078
20121,8165
21036,8165
21036,9908
21053,9991
21053,11033
20976,10848
20653,10524
20230,10348
19771,10348
19348,10523
19024,10846
18848,11269
18848,11728
19023,12151
19346,12475
19769,12651
20228,12651
20651,12476
20975,12153
21053,11966
21053,14152
20614,13713
20240,13463
19800,13375
18662,13375
17785,12499
17412,12249
16971,12161
16530,12249
16157,12499
15907,12872
15820,13313
15907,13754
16157,14127
17371,15341
17489,15420
17277,15463
16968,15669
16762,15978
16744,16066
16577,16317
16489,16758
16577,17198
16744,17449
16762,17538
16968,17847
17277,18053
17314,18060
17614,18359
17987,18609
18428,18697
22188,18697
22628,18609
23002,18359
23019,18343
23268,17969
23356,17529
23356,17516
24333,17516
24774,17428
25148,17178
25397,16805
25485,16364
25397,15923
25148,15550
24774,15300
24333,15212
23356,15212
23356,11728
25934,11728
26109,12151
26433,12475
26856,12651
27314,12651
27738,12476
28062,12153
28237,11730
28238,11271
28063,10848
27739,10524
27316,10348
26858,10348
26435,10523
26110,10846
25935,11269
25934,11728
23356,11728
23356,9925
23339,9842
23339,7014
23252,6573
23002,6199
22628,5950
22188,5862
20283,5862
20935,5210
21078,4996
23730,4996
23730,9925
23817,10365
24067,10739
24441,10989
24881,11076
25322,10989
25696,10739
25945,10365
26033,9925
26033,5882
26558,5882
26998,5794
27372,5544
27622,5171
27709,4730
27622,4290
27372,3916
26998,3666
26558,3579
25893,3579
25696,3283
25443,3030
25069,2780
24629,2693
21209,2693
21185,2573
20935,2199
20561,1950
20121,1862
19680,1950
19306,2199
19057,2573
18969,3014
18969,3919
18241,4647
18241,2998
18153,2557
17904,2184
17530,1934
17089,1846
16649,1934
16275,2184
16025,2557
15938,2998
15938,4942
15291,5589
15101,5873
14911,5589
14343,5021
14343,2978
14256,2538
14006,2164
13632,1914
13192,1827
12751,1914
12377,2164
12128,2538
12040,2978
12040,4630
10695,3285
10322,3036
9881,2948
6400,2948
5959,3036
5585,3285
5336,3659
5248,4100
5336,4540
5446,4705
5446,6564
2185,6564
1782,6645
1763,6657
1583,6691
1392,6814
1264,7001
1225,7195
1212,7215
1131,7618
590,7618
590,5110
3930,5110
3930,2807
3506,2807
3710,2316
3710,1623
3446,982
3054,590
26867,590
26476,980
" /> 
</g> 
</svg>
