<?xml version="1.0" standalone="no"?>
 <!DOCTYPE svg PUBLIC "-//W3C//DTD SVG 1.1//EN" 
 "http://www.w3.org/Graphics/SVG/1.1/DTD/svg11.dtd"> 
<svg xmlns="http://www.w3.org/2000/svg" version="1.1" 
    width="27.94cm" height="21.59cm" viewBox="0 0 110000 85000 ">
<title>SVG Picture created as PSU-F.SilkS.svg date 2018/03/20 02:20:43 </title>
  <desc>Picture generated by PCBNEW </desc>
<g style="fill:#000000; fill-opacity:1;stroke:#000000; stroke-opacity:1;
stroke-linecap:round; stroke-linejoin:round; "
 transform="translate(0 0) scale(1 1)">
</g>
<g style="fill:#000000; fill-opacity:0.0; 
stroke:#000000; stroke-width:-0.000393701; stroke-opacity:1; 
stroke-linecap:round; stroke-linejoin:round;">
</g>
<g style="fill:#000000; fill-opacity:0.0; 
stroke:#000000; stroke-width:59.0551; stroke-opacity:1; 
stroke-linecap:round; stroke-linejoin:round;">
<path d="M12890 14276
L13087 14867
L13284 14276
" />
<path d="M13481 14867
L13481 14276
L13622 14276
L13706 14304
L13762 14360
L13790 14417
L13818 14529
L13818 14614
L13790 14726
L13762 14782
L13706 14839
L13622 14867
L13481 14867
" />
<path d="M14409 14810
L14381 14839
L14296 14867
L14240 14867
L14156 14839
L14100 14782
L14071 14726
L14043 14614
L14043 14529
L14071 14417
L14100 14360
L14156 14304
L14240 14276
L14296 14276
L14381 14304
L14409 14332
" />
<path d="M15224 14276
L15337 14276
L15393 14304
L15449 14360
L15478 14473
L15478 14670
L15449 14782
L15393 14839
L15337 14867
L15224 14867
L15168 14839
L15112 14782
L15084 14670
L15084 14473
L15112 14360
L15168 14304
L15224 14276
" />
<path d="M15731 14276
L15731 14754
L15759 14810
L15787 14839
L15843 14867
L15956 14867
L16012 14839
L16040 14810
L16068 14754
L16068 14276
" />
<path d="M16265 14276
L16602 14276
" />
<path d="M16434 14867
L16434 14276
" />
<path d="M16799 14867
L16799 14276
L17024 14276
L17080 14304
L17109 14332
L17137 14389
L17137 14473
L17109 14529
L17080 14557
L17024 14585
L16799 14585
" />
<path d="M17390 14276
L17390 14754
L17418 14810
L17446 14839
L17502 14867
L17615 14867
L17671 14839
L17699 14810
L17727 14754
L17727 14276
" />
<path d="M17924 14276
L18262 14276
" />
<path d="M18093 14867
L18093 14276
" />
<path d="M12620 642
L12864 642
" />
<path d="M12571 789
L12742 277
L12912 789
" />
<path d="M13375 740
L13351 764
L13278 789
L13229 789
L13156 764
L13107 715
L13083 667
L13059 569
L13059 496
L13083 399
L13107 350
L13156 301
L13229 277
L13278 277
L13351 301
L13375 325
" />
<path d="M13985 789
L13985 277
L14180 277
L14228 301
L14253 325
L14277 374
L14277 447
L14253 496
L14228 520
L14180 545
L13985 545
" />
<path d="M14448 277
L14570 789
L14667 423
L14765 789
L14886 277
" />
<path d="M15374 789
L15203 545
" />
<path d="M15081 789
L15081 277
L15276 277
L15325 301
L15349 325
L15374 374
L15374 447
L15349 496
L15325 520
L15276 545
L15081 545
" />
<path d="M15983 789
L15983 277
" />
<path d="M16227 789
L16227 277
L16519 789
L16519 277
" />
<path d="M16763 789
L16763 277
L16958 277
L17007 301
L17031 325
L17056 374
L17056 447
L17031 496
L17007 520
L16958 545
L16763 545
" />
<path d="M17275 277
L17275 691
L17299 740
L17324 764
L17372 789
L17470 789
L17519 764
L17543 740
L17567 691
L17567 277
" />
<path d="M17738 277
L18030 277
" />
<path d="M17884 789
L17884 277
" />
<path d="M1212 15939
L1296 15967
L1437 15967
L1493 15939
L1521 15910
L1549 15854
L1549 15798
L1521 15742
L1493 15714
L1437 15685
L1324 15657
L1268 15629
L1240 15601
L1212 15545
L1212 15489
L1240 15432
L1268 15404
L1324 15376
L1465 15376
L1549 15404
" />
<path d="M2056 15573
L2056 15967
" />
<path d="M1803 15573
L1803 15882
L1831 15939
L1887 15967
L1971 15967
L2028 15939
L2056 15910
" />
<path d="M2337 15573
L2337 16164
" />
<path d="M2337 15601
L2393 15573
L2506 15573
L2562 15601
L2590 15629
L2618 15685
L2618 15854
L2590 15910
L2562 15939
L2506 15967
L2393 15967
L2337 15939
" />
<path d="M2871 15573
L2871 16164
" />
<path d="M2871 15601
L2927 15573
L3040 15573
L3096 15601
L3124 15629
L3152 15685
L3152 15854
L3124 15910
L3096 15939
L3040 15967
L2927 15967
L2871 15939
" />
<path d="M3490 15967
L3434 15939
L3405 15882
L3405 15376
" />
<path d="M3659 15573
L3799 15967
" />
<path d="M3940 15573
L3799 15967
L3743 16107
L3715 16135
L3659 16164
" />
</g>
<g style="fill:#000000; fill-opacity:0.0; 
stroke:#000000; stroke-width:78.7402; stroke-opacity:1; 
stroke-linecap:round; stroke-linejoin:round;">
<path d="M706 14331
L974 13990
" />
<path d="M706 13990
L974 14331
" />
<path d="M1096 13990
L1291 13990
" />
<path d="M1169 14331
L1169 13892
L1193 13844
L1242 13819
L1291 13819
" />
<path d="M1534 14331
L1486 14307
L1461 14282
L1437 14234
L1437 14087
L1461 14039
L1486 14014
L1534 13990
L1607 13990
L1656 14014
L1681 14039
L1705 14087
L1705 14234
L1681 14282
L1656 14307
L1607 14331
L1534 14331
" />
<path d="M1924 14331
L1924 13990
" />
<path d="M1924 14087
L1949 14039
L1973 14014
L2022 13990
L2071 13990
" />
<path d="M2241 14331
L2241 13990
" />
<path d="M2241 14039
L2265 14014
L2314 13990
L2387 13990
L2436 14014
L2460 14063
L2460 14331
" />
<path d="M2460 14063
L2485 14014
L2534 13990
L2607 13990
L2655 14014
L2680 14063
L2680 14331
" />
<path d="M2875 13819
L3192 13819
L3021 14014
L3094 14014
L3143 14039
L3167 14063
L3192 14112
L3192 14234
L3167 14282
L3143 14307
L3094 14331
L2948 14331
L2899 14307
L2875 14282
" />
<path d="M3411 14282
L3435 14307
L3411 14331
L3387 14307
L3411 14282
L3411 14331
" />
<path d="M3874 14307
L3825 14331
L3728 14331
L3679 14307
L3655 14282
L3630 14234
L3630 14087
L3655 14039
L3679 14014
L3728 13990
L3825 13990
L3874 14014
" />
<path d="M4167 14331
L4118 14307
L4093 14282
L4069 14234
L4069 14087
L4093 14039
L4118 14014
L4167 13990
L4240 13990
L4288 14014
L4313 14039
L4337 14087
L4337 14234
L4313 14282
L4288 14307
L4240 14331
L4167 14331
" />
<path d="M4556 14331
L4556 13990
" />
<path d="M4556 14039
L4581 14014
L4630 13990
L4703 13990
L4751 14014
L4776 14063
L4776 14331
" />
<path d="M4776 14063
L4800 14014
L4849 13990
L4922 13990
L4971 14014
L4995 14063
L4995 14331
" />
<path d="M5604 13990
L5970 13990
" />
<path d="M5751 13770
L5604 14429
" />
<path d="M5921 14209
L5556 14209
" />
<path d="M5775 14429
L5921 13770
" />
<path d="M6092 13819
L6433 14331
" />
<path d="M6433 13819
L6092 14331
" />
<path d="M6799 14063
L6628 14063
" />
<path d="M6628 14331
L6628 13819
L6872 13819
" />
<path d="M7067 14331
L7067 13819
L7262 13819
L7310 13844
L7335 13868
L7359 13917
L7359 13990
L7335 14039
L7310 14063
L7262 14087
L7067 14087
" />
<path d="M7871 14282
L7847 14307
L7774 14331
L7725 14331
L7652 14307
L7603 14258
L7579 14209
L7554 14112
L7554 14039
L7579 13941
L7603 13892
L7652 13844
L7725 13819
L7774 13819
L7847 13844
L7871 13868
" />
<path d="M8261 14063
L8334 14087
L8358 14112
L8383 14160
L8383 14234
L8358 14282
L8334 14307
L8285 14331
L8090 14331
L8090 13819
L8261 13819
L8310 13844
L8334 13868
L8358 13917
L8358 13965
L8334 14014
L8310 14039
L8261 14063
L8090 14063
" />
<path d="M8700 13819
L8748 13819
L8797 13844
L8822 13868
L8846 13917
L8870 14014
L8870 14136
L8846 14234
L8822 14282
L8797 14307
L8748 14331
L8700 14331
L8651 14307
L8627 14282
L8602 14234
L8578 14136
L8578 14014
L8602 13917
L8627 13868
L8651 13844
L8700 13819
" />
<path d="M9187 13819
L9236 13819
L9285 13844
L9309 13868
L9333 13917
L9358 14014
L9358 14136
L9333 14234
L9309 14282
L9285 14307
L9236 14331
L9187 14331
L9138 14307
L9114 14282
L9090 14234
L9065 14136
L9065 14014
L9090 13917
L9114 13868
L9138 13844
L9187 13819
" />
<path d="M9675 13819
L9723 13819
L9772 13844
L9796 13868
L9821 13917
L9845 14014
L9845 14136
L9821 14234
L9796 14282
L9772 14307
L9723 14331
L9675 14331
L9626 14307
L9601 14282
L9577 14234
L9553 14136
L9553 14014
L9577 13917
L9601 13868
L9626 13844
L9675 13819
" />
<path d="M10284 13990
L10284 14331
" />
<path d="M10162 13795
L10040 14160
L10357 14160
" />
<path d="M10528 14185
L10771 14185
" />
<path d="M10479 14331
L10649 13819
L10820 14331
" />
</g>
<g style="fill:#000000; fill-opacity:0.0; 
stroke:#000000; stroke-width:59.0551; stroke-opacity:1; 
stroke-linecap:round; stroke-linejoin:round;">
<path d="M1337 14857
L1421 14885
L1449 14914
L1478 14970
L1478 15054
L1449 15110
L1421 15139
L1365 15167
L1140 15167
L1140 14576
L1337 14576
L1393 14604
L1421 14632
L1449 14689
L1449 14745
L1421 14801
L1393 14829
L1337 14857
L1140 14857
" />
<path d="M1731 15167
L1731 14773
" />
<path d="M1731 14576
L1703 14604
L1731 14632
L1759 14604
L1731 14576
L1731 14632
" />
<path d="M2012 14773
L2012 15364
" />
<path d="M2012 14801
L2068 14773
L2181 14773
L2237 14801
L2265 14829
L2293 14885
L2293 15054
L2265 15110
L2237 15139
L2181 15167
L2068 15167
L2012 15139
" />
<path d="M2631 15167
L2574 15139
L2546 15110
L2518 15054
L2518 14885
L2546 14829
L2574 14801
L2631 14773
L2715 14773
L2771 14801
L2799 14829
L2827 14885
L2827 15054
L2799 15110
L2771 15139
L2715 15167
L2631 15167
" />
<path d="M3165 15167
L3109 15139
L3080 15082
L3080 14576
" />
<path d="M3643 15167
L3643 14857
L3615 14801
L3559 14773
L3446 14773
L3390 14801
" />
<path d="M3643 15139
L3587 15167
L3446 15167
L3390 15139
L3362 15082
L3362 15026
L3390 14970
L3446 14942
L3587 14942
L3643 14914
" />
<path d="M3924 15167
L3924 14773
" />
<path d="M3924 14885
L3952 14829
L3980 14801
L4037 14773
L4093 14773
" />
<path d="M4740 15167
L4740 14576
L4965 14576
L5021 14604
L5049 14632
L5077 14689
L5077 14773
L5049 14829
L5021 14857
L4965 14885
L4740 14885
" />
<path d="M5415 15167
L5358 15139
L5330 15110
L5302 15054
L5302 14885
L5330 14829
L5358 14801
L5415 14773
L5499 14773
L5555 14801
L5583 14829
L5611 14885
L5611 15054
L5583 15110
L5555 15139
L5499 15167
L5415 15167
" />
<path d="M5808 14773
L5921 15167
L6033 14885
L6146 15167
L6258 14773
" />
<path d="M6708 15139
L6652 15167
L6539 15167
L6483 15139
L6455 15082
L6455 14857
L6483 14801
L6539 14773
L6652 14773
L6708 14801
L6736 14857
L6736 14914
L6455 14970
" />
<path d="M6989 15167
L6989 14773
" />
<path d="M6989 14885
L7017 14829
L7046 14801
L7102 14773
L7158 14773
" />
<path d="M11996 1477
L11704 1477
" />
<path d="M11850 1477
L11850 966
L11801 1039
L11753 1088
L11704 1112
" />
<path d="M12289 1185
L12240 1161
L12216 1136
L12191 1088
L12191 1063
L12216 1014
L12240 990
L12289 966
L12386 966
L12435 990
L12460 1014
L12484 1063
L12484 1088
L12460 1136
L12435 1161
L12386 1185
L12289 1185
L12240 1209
L12216 1234
L12191 1283
L12191 1380
L12216 1429
L12240 1453
L12289 1477
L12386 1477
L12435 1453
L12460 1429
L12484 1380
L12484 1283
L12460 1234
L12435 1209
L12386 1185
" />
<path d="M12630 966
L12801 1477
L12971 966
" />
<path d="M13118 1331
L13361 1331
" />
<path d="M13069 1477
L13239 966
L13410 1477
" />
<path d="M13873 1429
L13849 1453
L13776 1477
L13727 1477
L13654 1453
L13605 1404
L13581 1356
L13556 1258
L13556 1185
L13581 1088
L13605 1039
L13654 990
L13727 966
L13776 966
L13849 990
L13873 1014
" />
<path d="M14750 990
L14702 966
L14629 966
L14556 990
L14507 1039
L14482 1088
L14458 1185
L14458 1258
L14482 1356
L14507 1404
L14556 1453
L14629 1477
L14677 1477
L14750 1453
L14775 1429
L14775 1258
L14677 1258
" />
<path d="M14994 1477
L14994 966
L15287 1477
L15287 966
" />
<path d="M15530 1477
L15530 966
L15652 966
L15725 990
L15774 1039
L15798 1088
L15823 1185
L15823 1258
L15798 1356
L15774 1404
L15725 1453
L15652 1477
L15530 1477
" />
<path d="M16700 1477
L16408 1477
" />
<path d="M16554 1477
L16554 966
L16505 1039
L16457 1088
L16408 1112
" />
<path d="M16993 1185
L16944 1161
L16920 1136
L16895 1088
L16895 1063
L16920 1014
L16944 990
L16993 966
L17090 966
L17139 990
L17163 1014
L17188 1063
L17188 1088
L17163 1136
L17139 1161
L17090 1185
L16993 1185
L16944 1209
L16920 1234
L16895 1283
L16895 1380
L16920 1429
L16944 1453
L16993 1477
L17090 1477
L17139 1453
L17163 1429
L17188 1380
L17188 1283
L17163 1234
L17139 1209
L17090 1185
" />
<path d="M17334 966
L17505 1477
L17675 966
" />
<path d="M17821 1331
L18065 1331
" />
<path d="M17773 1477
L17943 966
L18114 1477
" />
<path d="M18577 1429
L18553 1453
L18479 1477
L18431 1477
L18358 1453
L18309 1404
L18284 1356
L18260 1258
L18260 1185
L18284 1088
L18309 1039
L18358 990
L18431 966
L18479 966
L18553 990
L18577 1014
" />
<path d="M11264 18962
L11684 18962
" />
<path d="M12235 19172
L11920 19172
" />
<path d="M12077 19172
L12077 18621
L12025 18700
L11972 18753
L11920 18779
" />
<path d="M12550 18858
L12497 18831
L12471 18805
L12445 18753
L12445 18726
L12471 18674
L12497 18648
L12550 18621
L12655 18621
L12707 18648
L12734 18674
L12760 18726
L12760 18753
L12734 18805
L12707 18831
L12655 18858
L12550 18858
L12497 18884
L12471 18910
L12445 18962
L12445 19067
L12471 19120
L12497 19146
L12550 19172
L12655 19172
L12707 19146
L12734 19120
L12760 19067
L12760 18962
L12734 18910
L12707 18884
L12655 18858
" />
<path d="M12917 18621
L13101 19172
L13285 18621
" />
<path d="M13469 19172
L13469 18621
L13600 18621
L13679 18648
L13731 18700
L13757 18753
L13783 18858
L13783 18936
L13757 19041
L13731 19094
L13679 19146
L13600 19172
L13469 19172
" />
<path d="M14335 19120
L14308 19146
L14230 19172
L14177 19172
L14098 19146
L14046 19094
L14020 19041
L13993 18936
L13993 18858
L14020 18753
L14046 18700
L14098 18648
L14177 18621
L14230 18621
L14308 18648
L14335 18674
" />
<path d="M15280 18648
L15227 18621
L15148 18621
L15070 18648
L15017 18700
L14991 18753
L14965 18858
L14965 18936
L14991 19041
L15017 19094
L15070 19146
L15148 19172
L15201 19172
L15280 19146
L15306 19120
L15306 18936
L15201 18936
" />
<path d="M15542 19172
L15542 18621
L15857 19172
L15857 18621
" />
<path d="M16119 19172
L16119 18621
L16251 18621
L16329 18648
L16382 18700
L16408 18753
L16434 18858
L16434 18936
L16408 19041
L16382 19094
L16329 19146
L16251 19172
L16119 19172
" />
<path d="M17091 18962
L17511 18962
" />
<path d="M17301 19172
L17301 18753
" />
<path d="M18062 19172
L17747 19172
" />
<path d="M17904 19172
L17904 18621
L17852 18700
L17799 18753
L17747 18779
" />
<path d="M18377 18858
L18324 18831
L18298 18805
L18272 18753
L18272 18726
L18298 18674
L18324 18648
L18377 18621
L18482 18621
L18534 18648
L18560 18674
L18587 18726
L18587 18753
L18560 18805
L18534 18831
L18482 18858
L18377 18858
L18324 18884
L18298 18910
L18272 18962
L18272 19067
L18298 19120
L18324 19146
L18377 19172
L18482 19172
L18534 19146
L18560 19120
L18587 19067
L18587 18962
L18560 18910
L18534 18884
L18482 18858
" />
<path d="M18744 18621
L18928 19172
L19112 18621
" />
<path d="M19295 19172
L19295 18621
L19427 18621
L19505 18648
L19558 18700
L19584 18753
L19610 18858
L19610 18936
L19584 19041
L19558 19094
L19505 19146
L19427 19172
L19295 19172
" />
<path d="M20161 19120
L20135 19146
L20056 19172
L20004 19172
L19925 19146
L19873 19094
L19846 19041
L19820 18936
L19820 18858
L19846 18753
L19873 18700
L19925 18648
L20004 18621
L20056 18621
L20135 18648
L20161 18674
" />
<path d="M29921 0
L29921 19685
" />
<path d="M0 19685
L29921 19685
" />
<path d="M0 0
L0 19685
" />
<path d="M0 0
L29921 0
" />
</g>
<g style="fill:#000000; fill-opacity:0.0; 
stroke:#000000; stroke-width:196.85; stroke-opacity:1; 
stroke-linecap:round; stroke-linejoin:round;">
<circle cx="6903.5" cy="17398" r="504.48" /> 
<path d="M5915 15510
L5915 19289
" />
</g>
<g style="fill:#000000; fill-opacity:0.0; 
stroke:#000000; stroke-width:59.0551; stroke-opacity:1; 
stroke-linecap:round; stroke-linejoin:round;">
<circle cx="6900" cy="17400" r="393.701" /> 
</g>
<g style="fill:#000000; fill-opacity:0.0; 
stroke:#000000; stroke-width:98.4252; stroke-opacity:1; 
stroke-linecap:round; stroke-linejoin:round;">
<circle cx="5915.75" cy="17400" r="1983.27" /> 
</g>
<g style="fill:#000000; fill-opacity:0.0; 
stroke:#000000; stroke-width:196.85; stroke-opacity:1; 
stroke-linecap:round; stroke-linejoin:round;">
<path d="M6087 15510
L6079 19292
" />
<path d="M6253 15540
L6253 19274
" />
<path d="M6413 15552
L6417 19234
" />
<path d="M6543 15612
L6543 16898
" />
<path d="M6571 17896
L6571 19182
" />
<path d="M6721 17872
L6719 19136
" />
<path d="M6871 17982
L6871 19056
" />
<path d="M7025 17876
L7025 18950
" />
<path d="M7173 17780
L7173 18854
" />
<path d="M7289 17734
L7293 18736
" />
<path d="M7419 16200
L7423 18592
" />
<path d="M6691 15672
L6691 16804
" />
<path d="M6847 15744
L6847 16876
" />
<path d="M6993 15826
L6995 16862
" />
<path d="M7149 15930
L7147 16898
" />
<path d="M7279 16066
L7277 17034
" />
<path d="M7549 16404
L7533 18422
" />
<path d="M7657 16628
L7657 18210
" />
<path d="M7757 16874
L7767 17888
" />
</g>
<g style="fill:#000000; fill-opacity:1.0; 
stroke:#000000; stroke-width:3.93701; stroke-opacity:1; 
stroke-linecap:round; stroke-linejoin:round;">
<polyline style="fill-rule:evenodd;"
points="16636,12607
15036,12607
15036,11930
15228,11952
15360,11967
15487,11985
15543,11994
15666,12015
15648,11899
15642,11848
15650,11804
15679,11758
15738,11699
15835,11615
15924,11542
16042,11444
16140,11360
16206,11299
16229,11273
16211,11243
16170,11224
16125,11199
16113,11152
16123,11079
16146,10974
16172,10884
16174,10879
16197,10805
16187,10770
16134,10767
16029,10792
15898,10816
15815,10802
15775,10749
15768,10694
15760,10665
15733,10674
15678,10725
15610,10799
15500,10911
15424,10965
15381,10962
15370,10915
15377,10858
15394,10753
15418,10620
15431,10550
15491,10244
15399,10292
15323,10326
15273,10340
15242,10313
15191,10242
15132,10142
15131,10140
15073,10040
15027,9968
15003,9940
15003,9940
14979,9967
14934,10038
14876,10137
14875,10140
14815,10240
14764,10312
14732,10340
14732,10340
14681,10326
14607,10292
14514,10244
14574,10550
14601,10691
14621,10812
14633,10894
14635,10915
14620,10967
14571,10960
14489,10897
14395,10799
14313,10710
14265,10669
14242,10668
14237,10694
14219,10774
14164,10812
14064,10811
13976,10792
13870,10767
13818,10770
13809,10805
13831,10879
13857,10966
13881,11071
13882,11079
13892,11162
13875,11204
13835,11224
13784,11251
13776,11273
13804,11304
13874,11367
13974,11453
14081,11542
14208,11647
14292,11721
14339,11775
14360,11819
14362,11864
14358,11899
14339,12015
14462,11994
14568,11978
14702,11960
14778,11952
14969,11930
14969,12607
13369,12607
13369,9907
16636,9907
16636,12607
" /> 
</g>
<g style="fill:#000000; fill-opacity:1.0; 
stroke:#000000; stroke-width:0; stroke-opacity:1; 
stroke-linecap:round; stroke-linejoin:round;">
<polyline style="fill-rule:evenodd;"
points="28351,7740
28292,9150
28382,10472
28438,10493
28351,9138
28402,7770
28351,7740
" /> 
<polyline style="fill-rule:evenodd;"
points="28373,7726
27922,8120
27610,8916
27353,9789
27087,10411
27134,10447
27410,9807
27667,8933
27974,8149
28380,7785
28373,7726
" /> 
<polyline style="fill-rule:evenodd;"
points="28403,7741
28350,7769
29077,9245
29323,9860
29380,10067
29384,10169
29438,10193
29439,10056
29379,9841
29131,9221
28403,7741
28403,7741
" /> 
<polyline style="fill-rule:evenodd;"
points="28125,6527
28061,6613
28329,7664
27450,6713
28061,6613
28125,6527
28568,6860
28614,6877
28639,6931
28618,6981
28568,7002
28510,6973
28497,6931
28518,6881
28568,6860
28125,6527
28087,6533
27315,6659
28392,7824
29029,6529
28125,6527
" /> 
</g>
<g style="fill:#000000; fill-opacity:1.0; 
stroke:#000000; stroke-width:118.11; stroke-opacity:1; 
stroke-linecap:round; stroke-linejoin:round;">
</g>
<g style="fill:#000000; fill-opacity:0.0; 
stroke:#000000; stroke-width:118.11; stroke-opacity:1; 
stroke-linecap:round; stroke-linejoin:round;">
<path d="M10988 11025
L1933 11025
" />
</g>
<g style="fill:#000000; fill-opacity:0.0; 
stroke:#000000; stroke-width:120; stroke-opacity:1; 
stroke-linecap:round; stroke-linejoin:round;">
<path d="M3902 9056
L3902 11025
" />
<path d="M8823 9056
L8823 11025
" />
<path d="M10988 9056
L10988 14174
" />
<path d="M1933 9056
L1933 14174
" />
<path d="M4492 11418
L4492 13584
" />
<path d="M4492 13584
L8429 13584
" />
<path d="M8429 13584
L8429 11418
" />
<path d="M8429 11418
L4492 11418
" />
<path d="M7445 9056
L7445 11025
" />
<path d="M5674 9056
L5674 11025
" />
</g>
<g style="fill:#000000; fill-opacity:0.0; 
stroke:#000000; stroke-width:59.0551; stroke-opacity:1; 
stroke-linecap:round; stroke-linejoin:round;">
<path d="M4814 7618
L4414 7618
" />
<path d="M6714 7618
L7214 7618
" />
</g>
<g style="fill:#000000; fill-opacity:0.0; 
stroke:#000000; stroke-width:118.11; stroke-opacity:1; 
stroke-linecap:round; stroke-linejoin:round;">
<path d="M6358 8050
L6358 7156
" />
</g>
<g style="fill:#000000; fill-opacity:0.0; 
stroke:#000000; stroke-width:255.906; stroke-opacity:1; 
stroke-linecap:round; stroke-linejoin:round;">
<path d="M6686 8007
L6686 7219
" />
</g>
<g style="fill:#000000; fill-opacity:0.0; 
stroke:#000000; stroke-width:59.0551; stroke-opacity:1; 
stroke-linecap:round; stroke-linejoin:round;">
<path d="M6814 7118
L6814 8118
" />
<path d="M6814 8118
L4814 8118
" />
<path d="M4814 8118
L4814 7118
" />
<path d="M4814 7118
L6814 7118
" />
</g>
<g style="fill:#000000; fill-opacity:0.0; 
stroke:#000000; stroke-width:255.906; stroke-opacity:1; 
stroke-linecap:round; stroke-linejoin:round;">
<path d="M6502 8015
L6502 7227
" />
</g>
<g style="fill:#000000; fill-opacity:0.0; 
stroke:#000000; stroke-width:196.85; stroke-opacity:1; 
stroke-linecap:round; stroke-linejoin:round;">
<circle cx="6500.69" cy="4121.97" r="518.525" /> 
</g>
<g style="fill:#000000; fill-opacity:0.0; 
stroke:#000000; stroke-width:275.591; stroke-opacity:1; 
stroke-linecap:round; stroke-linejoin:round;">
<path d="M8940 3175
L4058 3175
" />
</g>
<g style="fill:#000000; fill-opacity:0.0; 
stroke:#000000; stroke-width:59.0551; stroke-opacity:1; 
stroke-linecap:round; stroke-linejoin:round;">
<circle cx="6499.21" cy="4120.47" r="393.701" /> 
</g>
<g style="fill:#000000; fill-opacity:0.0; 
stroke:#000000; stroke-width:98.4252; stroke-opacity:1; 
stroke-linecap:round; stroke-linejoin:round;">
<circle cx="6499.21" cy="3136.22" r="2573.82" /> 
</g>
<g style="fill:#000000; fill-opacity:0.0; 
stroke:#000000; stroke-width:275.591; stroke-opacity:1; 
stroke-linecap:round; stroke-linejoin:round;">
<path d="M8940 3411
L4058 3411
" />
<path d="M8917 3635
L6769 3637
" />
<path d="M6163 3615
L4115 3615
" />
</g>
<g style="fill:#000000; fill-opacity:0.0; 
stroke:#000000; stroke-width:354.331; stroke-opacity:1; 
stroke-linecap:round; stroke-linejoin:round;">
<path d="M5983 3839
L4173 3835
" />
<path d="M8801 3859
L7065 3859
" />
<path d="M8721 4093
L7111 4089
" />
<path d="M8617 4331
L7053 4331
" />
<path d="M8455 4583
L6891 4583
" />
<path d="M8263 4785
L4709 4785
" />
<path d="M6109 4559
L4545 4559
" />
<path d="M5951 4317
L4387 4317
" />
<path d="M5841 4069
L4277 4069
" />
<path d="M8073 5007
L4913 4997
" />
</g>
<g style="fill:#000000; fill-opacity:0.0; 
stroke:#000000; stroke-width:196.85; stroke-opacity:1; 
stroke-linecap:round; stroke-linejoin:round;">
<path d="M7895 5235
L5097 5235
" />
<path d="M7695 5361
L5333 5361
" />
<path d="M7389 5487
L5581 5493
" />
<path d="M7009 5609
L6013 5597
" />
<circle cx="23584.4" cy="1874.88" r="518.525" /> 
</g>
<g style="fill:#000000; fill-opacity:0.0; 
stroke:#000000; stroke-width:275.591; stroke-opacity:1; 
stroke-linecap:round; stroke-linejoin:round;">
<path d="M21144 2821
L26026 2821
" />
</g>
<g style="fill:#000000; fill-opacity:0.0; 
stroke:#000000; stroke-width:59.0551; stroke-opacity:1; 
stroke-linecap:round; stroke-linejoin:round;">
<circle cx="23585.8" cy="1876.38" r="393.701" /> 
</g>
<g style="fill:#000000; fill-opacity:0.0; 
stroke:#000000; stroke-width:98.4252; stroke-opacity:1; 
stroke-linecap:round; stroke-linejoin:round;">
<circle cx="23585.8" cy="2860.63" r="2573.82" /> 
</g>
<g style="fill:#000000; fill-opacity:0.0; 
stroke:#000000; stroke-width:275.591; stroke-opacity:1; 
stroke-linecap:round; stroke-linejoin:round;">
<path d="M21144 2585
L26026 2585
" />
<path d="M21167 2360
L23315 2358
" />
<path d="M23921 2380
L25969 2380
" />
</g>
<g style="fill:#000000; fill-opacity:0.0; 
stroke:#000000; stroke-width:354.331; stroke-opacity:1; 
stroke-linecap:round; stroke-linejoin:round;">
<path d="M24101 2156
L25911 2160
" />
<path d="M21283 2136
L23019 2136
" />
<path d="M21363 1902
L22973 1906
" />
<path d="M21467 1664
L23031 1664
" />
<path d="M21629 1412
L23193 1412
" />
<path d="M21821 1210
L25375 1210
" />
<path d="M23975 1436
L25539 1436
" />
<path d="M24133 1678
L25697 1678
" />
<path d="M24243 1926
L25807 1926
" />
<path d="M22011 988
L25171 998
" />
</g>
<g style="fill:#000000; fill-opacity:0.0; 
stroke:#000000; stroke-width:196.85; stroke-opacity:1; 
stroke-linecap:round; stroke-linejoin:round;">
<path d="M22189 760
L24987 760
" />
<path d="M22389 634
L24751 634
" />
<path d="M22695 508
L24503 502
" />
<path d="M23075 386
L24071 398
" />
</g>
<g style="fill:#000000; fill-opacity:0.0; 
stroke:#000000; stroke-width:118.11; stroke-opacity:1; 
stroke-linecap:round; stroke-linejoin:round;">
<path d="M19015 11500
L28070 11500
" />
</g>
<g style="fill:#000000; fill-opacity:0.0; 
stroke:#000000; stroke-width:120; stroke-opacity:1; 
stroke-linecap:round; stroke-linejoin:round;">
<path d="M26102 13468
L26102 11500
" />
<path d="M21181 13468
L21181 11500
" />
<path d="M19015 13468
L19015 8350
" />
<path d="M28070 13468
L28070 8350
" />
<path d="M25511 11106
L25511 8940
" />
<path d="M25511 8940
L21574 8940
" />
<path d="M21574 8940
L21574 11106
" />
<path d="M21574 11106
L25511 11106
" />
<path d="M22559 13468
L22559 11500
" />
<path d="M24330 13468
L24330 11500
" />
</g>
<g style="fill:#000000; fill-opacity:0.0; 
stroke:#000000; stroke-width:59.0551; stroke-opacity:1; 
stroke-linecap:round; stroke-linejoin:round;">
<path d="M25188 7014
L25588 7014
" />
<path d="M23288 7014
L22788 7014
" />
</g>
<g style="fill:#000000; fill-opacity:0.0; 
stroke:#000000; stroke-width:118.11; stroke-opacity:1; 
stroke-linecap:round; stroke-linejoin:round;">
<path d="M23644 6582
L23644 7475
" />
</g>
<g style="fill:#000000; fill-opacity:0.0; 
stroke:#000000; stroke-width:255.906; stroke-opacity:1; 
stroke-linecap:round; stroke-linejoin:round;">
<path d="M23316 6625
L23316 7412
" />
</g>
<g style="fill:#000000; fill-opacity:0.0; 
stroke:#000000; stroke-width:59.0551; stroke-opacity:1; 
stroke-linecap:round; stroke-linejoin:round;">
<path d="M23188 7514
L23188 6514
" />
<path d="M23188 6514
L25188 6514
" />
<path d="M25188 6514
L25188 7514
" />
<path d="M25188 7514
L23188 7514
" />
</g>
<g style="fill:#000000; fill-opacity:0.0; 
stroke:#000000; stroke-width:255.906; stroke-opacity:1; 
stroke-linecap:round; stroke-linejoin:round;">
<path d="M23500 6617
L23500 7404
" />
</g>
<g style="fill:#000000; fill-opacity:0.0; 
stroke:#000000; stroke-width:59.0551; stroke-opacity:1; 
stroke-linecap:round; stroke-linejoin:round;">
<path d="M20121 6014
L20121 6414
" />
<path d="M20121 4114
L20121 3614
" />
</g>
<g style="fill:#000000; fill-opacity:0.0; 
stroke:#000000; stroke-width:118.11; stroke-opacity:1; 
stroke-linecap:round; stroke-linejoin:round;">
<path d="M20553 4470
L19659 4470
" />
</g>
<g style="fill:#000000; fill-opacity:0.0; 
stroke:#000000; stroke-width:255.906; stroke-opacity:1; 
stroke-linecap:round; stroke-linejoin:round;">
<path d="M20510 4142
L19722 4142
" />
</g>
<g style="fill:#000000; fill-opacity:0.0; 
stroke:#000000; stroke-width:59.0551; stroke-opacity:1; 
stroke-linecap:round; stroke-linejoin:round;">
<path d="M19621 4014
L20621 4014
" />
<path d="M20621 4014
L20621 6014
" />
<path d="M20621 6014
L19621 6014
" />
<path d="M19621 6014
L19621 4014
" />
</g>
<g style="fill:#000000; fill-opacity:0.0; 
stroke:#000000; stroke-width:255.906; stroke-opacity:1; 
stroke-linecap:round; stroke-linejoin:round;">
<path d="M20518 4326
L19730 4326
" />
</g>
<g style="fill:#000000; fill-opacity:0.0; 
stroke:#000000; stroke-width:59.0551; stroke-opacity:1; 
stroke-linecap:round; stroke-linejoin:round;">
<path d="M9845 5108
L9845 5508
" />
<path d="M9845 3208
L9845 2708
" />
</g>
<g style="fill:#000000; fill-opacity:0.0; 
stroke:#000000; stroke-width:118.11; stroke-opacity:1; 
stroke-linecap:round; stroke-linejoin:round;">
<path d="M10277 3565
L9384 3565
" />
</g>
<g style="fill:#000000; fill-opacity:0.0; 
stroke:#000000; stroke-width:255.906; stroke-opacity:1; 
stroke-linecap:round; stroke-linejoin:round;">
<path d="M10234 3236
L9447 3236
" />
</g>
<g style="fill:#000000; fill-opacity:0.0; 
stroke:#000000; stroke-width:59.0551; stroke-opacity:1; 
stroke-linecap:round; stroke-linejoin:round;">
<path d="M9345 3108
L10345 3108
" />
<path d="M10345 3108
L10345 5108
" />
<path d="M10345 5108
L9345 5108
" />
<path d="M9345 5108
L9345 3108
" />
</g>
<g style="fill:#000000; fill-opacity:0.0; 
stroke:#000000; stroke-width:255.906; stroke-opacity:1; 
stroke-linecap:round; stroke-linejoin:round;">
<path d="M10242 3420
L9455 3420
" />
</g>
<g style="fill:#000000; fill-opacity:0.0; 
stroke:#000000; stroke-width:59.0551; stroke-opacity:1; 
stroke-linecap:round; stroke-linejoin:round;">
<path d="M12144 3094
L18119 3094
" />
<path d="M13969 1669
L13969 2944
" />
<path d="M14144 3701
L12169 3701
" />
<path d="M18144 4901
L12144 4901
" />
<path d="M13784.7 4440.74 A233.692 233.692 0.0 0 0 13728.9 4076.18 " />
<path d="M12564.4 4442.06 A809.778 809.778 0.0 0 0 13804.9 4421.18 " />
<path d="M13745.2 4090.99 A960.8 960.8 0.0 0 0 12568.9 4072.18 " />
<path d="M12586.6 4059.62 A268.33 268.33 0.0 0 0 12565.9 4440.18 " />
<path d="M13814 2944
L12514 2944
" />
<path d="M13964 2944
L13814 2944
" />
<path d="M12364 2944
L12514 2944
" />
<path d="M13754 4151
L12554 4401
" />
<path d="M13804 4201
L12604 4451
" />
<path d="M12364 3801
L13964 3801
" />
<path d="M12364 4801
L12364 3801
" />
<path d="M13964 4801
L12364 4801
" />
<path d="M13964 3801
L13964 4801
" />
<path d="M12514 2644
L12664 2644
" />
<path d="M13814 2644
L13664 2644
" />
<path d="M13822 1659
L13814 2644
" />
<path d="M12522 1659
L12514 2644
" />
<path d="M12364 2944
L12385 1659
" />
<path d="M18182 1650
L12158 1640
" />
<path d="M12144 4901
L12148 1659
" />
<path d="M13674 1669
L13664 2944
" />
<path d="M13664 2944
L12664 2944
" />
<path d="M12650 1659
L12664 2944
" />
<path d="M16637 1689
L16634 2944
" />
<path d="M17634 2944
L16634 2944
" />
<path d="M17631 1689
L17634 2944
" />
<path d="M14668 1669
L14664 2944
" />
<path d="M15664 2944
L14664 2944
" />
<path d="M15652 1679
L15664 2944
" />
<path d="M13969 2032
L13979 1659
" />
<path d="M14364 2944
L14383 1669
" />
<path d="M17934 2944
L17926 1669
" />
<path d="M15957 1669
L15964 2944
" />
<path d="M16351 1679
L16334 2944
" />
<path d="M14530 1669
L14514 2644
" />
<path d="M15820 1679
L15814 2644
" />
<path d="M16499 1669
L16484 2644
" />
<path d="M17788 1689
L17784 2644
" />
<path d="M17784 2644
L17634 2644
" />
<path d="M16484 2644
L16634 2644
" />
<path d="M15814 2644
L15664 2644
" />
<path d="M14514 2644
L14664 2644
" />
<path d="M18144 3701
L14144 3701
" />
<path d="M15964 3801
L15964 4801
" />
<path d="M15964 4801
L14364 4801
" />
<path d="M14364 4801
L14364 3801
" />
<path d="M14364 3801
L15964 3801
" />
<path d="M16334 3801
L16334 4801
" />
<path d="M16334 3801
L17934 3801
" />
<path d="M17934 3801
L17934 4801
" />
<path d="M16334 4801
L17934 4801
" />
<path d="M15804 4201
L14604 4451
" />
<path d="M15754 4151
L14554 4401
" />
<path d="M17774 4201
L16573 4451
" />
<path d="M17724 4151
L16524 4401
" />
<path d="M17934 2944
L17784 2944
" />
<path d="M16334 2944
L16484 2944
" />
<path d="M16484 2944
L17784 2944
" />
<path d="M14364 2944
L14514 2944
" />
<path d="M15964 2944
L15814 2944
" />
<path d="M15814 2944
L14514 2944
" />
<path d="M14586.6 4059.62 A268.33 268.33 0.0 0 0 14565.9 4440.18 " />
<path d="M15745.2 4090.99 A960.8 960.8 0.0 0 0 14568.9 4072.18 " />
<path d="M14564.4 4442.06 A809.778 809.778 0.0 0 0 15804.9 4421.18 " />
<path d="M15784.7 4440.74 A233.692 233.692 0.0 0 0 15728.9 4076.18 " />
<path d="M16556.6 4058.62 A269.072 269.072 0.0 0 0 16534.9 4440.18 " />
<path d="M17714.2 4090.99 A960.8 960.8 0.0 0 0 16537.9 4072.18 " />
<path d="M16532.1 4444.03 A811.333 811.333 0.0 0 0 17774.9 4421.18 " />
<path d="M17754.9 4439.77 A233.206 233.206 0.0 0 0 17697.9 4076.18 " />
<path d="M18172 4878
L18176 1637
" />
<path d="M18688 16898
L12713 16898
" />
<path d="M16863 18323
L16863 17048
" />
<path d="M16688 16291
L18663 16291
" />
<path d="M12688 15091
L18688 15091
" />
<path d="M17048.4 15552.2 A233.692 233.692 0.0 0 0 17104.2 15916.7 " />
<path d="M18268.7 15550.8 A809.778 809.778 0.0 0 0 17028.2 15571.7 " />
<path d="M17087.9 15901.9 A960.8 960.8 0.0 0 0 18264.2 15920.7 " />
<path d="M18246.4 15933.3 A268.33 268.33 0.0 0 0 18267.2 15552.7 " />
<path d="M17018 17048
L18318 17048
" />
<path d="M16868 17048
L17018 17048
" />
<path d="M18468 17048
L18318 17048
" />
<path d="M17078 15841
L18278 15591
" />
<path d="M17028 15791
L18228 15541
" />
<path d="M18468 16191
L16868 16191
" />
<path d="M18468 15191
L18468 16191
" />
<path d="M16868 15191
L18468 15191
" />
<path d="M16868 16191
L16868 15191
" />
<path d="M18318 17348
L18168 17348
" />
<path d="M17018 17348
L17168 17348
" />
<path d="M17011 18333
L17018 17348
" />
<path d="M18310 18333
L18318 17348
" />
<path d="M18468 17048
L18448 18333
" />
<path d="M12650 18342
L18674 18352
" />
<path d="M18688 15091
L18684 18333
" />
<path d="M17158 18323
L17168 17048
" />
<path d="M17168 17048
L18168 17048
" />
<path d="M18182 18333
L18168 17048
" />
<path d="M14196 18303
L14198 17048
" />
<path d="M13198 17048
L14198 17048
" />
<path d="M13201 18303
L13198 17048
" />
<path d="M16164 18323
L16168 17048
" />
<path d="M15168 17048
L16168 17048
" />
<path d="M15180 18313
L15168 17048
" />
<path d="M16863 17960
L16853 18333
" />
<path d="M16468 17048
L16450 18323
" />
<path d="M12898 17048
L12906 18323
" />
<path d="M14875 18323
L14868 17048
" />
<path d="M14481 18313
L14498 17048
" />
<path d="M16302 18323
L16318 17348
" />
<path d="M15012 18313
L15018 17348
" />
<path d="M14333 18323
L14348 17348
" />
<path d="M13044 18303
L13048 17348
" />
<path d="M13048 17348
L13198 17348
" />
<path d="M14348 17348
L14198 17348
" />
<path d="M15018 17348
L15168 17348
" />
<path d="M16318 17348
L16168 17348
" />
<path d="M12688 16291
L16688 16291
" />
<path d="M14868 16191
L14868 15191
" />
<path d="M14868 15191
L16468 15191
" />
<path d="M16468 15191
L16468 16191
" />
<path d="M16468 16191
L14868 16191
" />
<path d="M14498 16191
L14498 15191
" />
<path d="M14498 16191
L12898 16191
" />
<path d="M12898 16191
L12898 15191
" />
<path d="M14498 15191
L12898 15191
" />
<path d="M15028 15791
L16228 15541
" />
<path d="M15078 15841
L16278 15591
" />
<path d="M13058 15791
L14259 15541
" />
<path d="M13108 15841
L14308 15591
" />
<path d="M12898 17048
L13048 17048
" />
<path d="M14498 17048
L14348 17048
" />
<path d="M14348 17048
L13048 17048
" />
<path d="M16468 17048
L16318 17048
" />
<path d="M14868 17048
L15018 17048
" />
<path d="M15018 17048
L16318 17048
" />
<path d="M16246.4 15933.3 A268.33 268.33 0.0 0 0 16267.2 15552.7 " />
<path d="M15087.9 15901.9 A960.8 960.8 0.0 0 0 16264.2 15920.7 " />
<path d="M16268.7 15550.8 A809.778 809.778 0.0 0 0 15028.2 15571.7 " />
<path d="M15048.4 15552.2 A233.692 233.692 0.0 0 0 15104.2 15916.7 " />
<path d="M14276.4 15934.3 A269.072 269.072 0.0 0 0 14298.2 15552.7 " />
<path d="M13118.9 15901.9 A960.8 960.8 0.0 0 0 14295.2 15920.7 " />
<path d="M14301 15548.9 A811.333 811.333 0.0 0 0 13058.2 15571.7 " />
<path d="M13078.1 15553.1 A233.206 233.206 0.0 0 0 13135.2 15916.7 " />
<path d="M12660 15114
L12656 18355
" />
</g>
<g style="fill:#000000; fill-opacity:0.0; 
stroke:#000000; stroke-width:78.7402; stroke-opacity:1; 
stroke-linecap:round; stroke-linejoin:round;">
<path d="M14332.9 7312.07 A167.033 167.033 0.0 0 0 14078 7289.76 " />
<path d="M13838.7 7333.05 A158.706 158.706 0.0 0 0 14078 7289.76 " />
<path d="M15866.2 7333.05 A158.706 158.706 0.0 0 0 16105.5 7289.76 " />
<path d="M16360.4 7312.07 A167.033 167.033 0.0 0 0 16105.5 7289.76 " />
<path d="M12247 7329
L11853 7329
" />
<path d="M18270 7270
L17877 7270
" />
<path d="M18074 7466
L18074 7073
" />
</g>
<g style="fill:#000000; fill-opacity:0.0; 
stroke:#000000; stroke-width:59.0551; stroke-opacity:1; 
stroke-linecap:round; stroke-linejoin:round;">
<path d="M19137 7703
L11026 7703
" />
<path d="M11026 7703
L11026 5419
" />
<path d="M11026 5419
L19137 5419
" />
<path d="M19137 5419
L19137 7703
" />
<path d="M26361 3844
L28723 3844
" />
<path d="M28723 5616
L26361 5616
" />
<path d="M1299 7814
L1299 5452
" />
<path d="M3070 5452
L3070 7814
" />
<path d="M19894.9 15748.5 A1147.83 1147.83 0.0 1 0 21085.8 15742.5 " />
<path d="M19904 15742
L21085 15742
" />
<circle cx="20495.3" cy="16726.8" r="991.313" /> 
<path d="M10957.8 17590.9 A1147.83 1147.83 0.0 1 0 9766.93 17596.9 " />
<path d="M10948 17596
L9766 17596
" />
<circle cx="10357.5" cy="16612.6" r="991.313" /> 
<path d="M13633 10274
L13633 12274
" />
<path d="M13633 12274
L12633 12274
" />
<path d="M12633 12274
L12633 10274
" />
<path d="M12633 10274
L13633 10274
" />
<path d="M13133 10274
L13133 9774
" />
<path d="M13133 12274
L13133 12774
" />
<path d="M17471 10313
L17471 12313
" />
<path d="M17471 12313
L16471 12313
" />
<path d="M16471 12313
L16471 10313
" />
<path d="M16471 10313
L17471 10313
" />
<path d="M16971 10313
L16971 9813
" />
<path d="M16971 12313
L16971 12813
" />
</g>
<g style="fill:#000000; fill-opacity:0.0; 
stroke:#000000; stroke-width:196.85; stroke-opacity:1; 
stroke-linecap:round; stroke-linejoin:round;">
<circle cx="24335.9" cy="18336.6" r="504.48" /> 
<path d="M26223 17348
L22444 17348
" />
</g>
<g style="fill:#000000; fill-opacity:0.0; 
stroke:#000000; stroke-width:59.0551; stroke-opacity:1; 
stroke-linecap:round; stroke-linejoin:round;">
<circle cx="24333.9" cy="18333.1" r="393.701" /> 
</g>
<g style="fill:#000000; fill-opacity:0.0; 
stroke:#000000; stroke-width:98.4252; stroke-opacity:1; 
stroke-linecap:round; stroke-linejoin:round;">
<circle cx="24333.9" cy="17348.8" r="1983.27" /> 
</g>
<g style="fill:#000000; fill-opacity:0.0; 
stroke:#000000; stroke-width:196.85; stroke-opacity:1; 
stroke-linecap:round; stroke-linejoin:round;">
<path d="M26223 17520
L22441 17512
" />
<path d="M26193 17686
L22459 17686
" />
<path d="M26181 17846
L22499 17850
" />
<path d="M26121 17976
L24835 17976
" />
<path d="M23837 18004
L22551 18004
" />
<path d="M23861 18154
L22597 18152
" />
<path d="M23751 18304
L22677 18304
" />
<path d="M23857 18458
L22783 18458
" />
<path d="M23953 18606
L22879 18606
" />
<path d="M23999 18722
L22997 18726
" />
<path d="M25533 18852
L23141 18856
" />
<path d="M26061 18124
L24929 18124
" />
<path d="M25989 18280
L24857 18280
" />
<path d="M25907 18426
L24871 18428
" />
<path d="M25803 18582
L24835 18580
" />
<path d="M25667 18712
L24699 18710
" />
<path d="M25329 18982
L23311 18966
" />
<path d="M25105 19090
L23523 19090
" />
<path d="M24859 19190
L23845 19200
" />
</g>
<g style="fill:#000000; fill-opacity:0.0; 
stroke:#000000; stroke-width:78.7402; stroke-opacity:1; 
stroke-linecap:round; stroke-linejoin:round;">
<circle cx="27952.8" cy="1968.5" r="70.9756" /> 
<circle cx="27952.8" cy="1968.5" r="205.518" /> 
</g>
<g style="fill:#000000; fill-opacity:0.0; 
stroke:#000000; stroke-width:118.11; stroke-opacity:1; 
stroke-linecap:round; stroke-linejoin:round;">
<path d="M28826 2700
L28059 2007
" />
</g>
<g style="fill:#000000; fill-opacity:0.0; 
stroke:#000000; stroke-width:59.0551; stroke-opacity:1; 
stroke-linecap:round; stroke-linejoin:round;">
<path d="M27137 2818
L28767 1122
" />
</g>
<g style="fill:#000000; fill-opacity:0.0; 
stroke:#000000; stroke-width:39.3701; stroke-opacity:1; 
stroke-linecap:round; stroke-linejoin:round;">
<path d="M29133 1968
L26771 1968
" />
<path d="M27952 3149
L27952 787
" />
<circle cx="27952.8" cy="1968.5" r="1181.1" /> 
</g>
<g style="fill:#000000; fill-opacity:0.0; 
stroke:#000000; stroke-width:59.0551; stroke-opacity:1; 
stroke-linecap:round; stroke-linejoin:round;">
<path d="M28787 2775
L27110 1153
" />
</g>
<g style="fill:#000000; fill-opacity:0.0; 
stroke:#000000; stroke-width:118.11; stroke-opacity:1; 
stroke-linecap:round; stroke-linejoin:round;">
<path d="M28893 2618
L28271 2070
" />
<path d="M29090 2027
L28153 2035
" />
</g>
<g style="fill:#000000; fill-opacity:0.0; 
stroke:#000000; stroke-width:157.48; stroke-opacity:1; 
stroke-linecap:round; stroke-linejoin:round;">
<path d="M28921 2468
L28440 2086
" />
</g>
<g style="fill:#000000; fill-opacity:0.0; 
stroke:#000000; stroke-width:196.85; stroke-opacity:1; 
stroke-linecap:round; stroke-linejoin:round;">
<path d="M29039 2137
L28598 2129
" />
</g>
<g style="fill:#000000; fill-opacity:0.0; 
stroke:#000000; stroke-width:334.646; stroke-opacity:1; 
stroke-linecap:round; stroke-linejoin:round;">
<path d="M28937 2177
L28846 2452
" />
</g>
<g style="fill:#000000; fill-opacity:0.0; 
stroke:#000000; stroke-width:118.11; stroke-opacity:1; 
stroke-linecap:round; stroke-linejoin:round;">
<path d="M26818 1911
L27755 1903
" />
</g>
<g style="fill:#000000; fill-opacity:0.0; 
stroke:#000000; stroke-width:196.85; stroke-opacity:1; 
stroke-linecap:round; stroke-linejoin:round;">
<path d="M26870 1801
L27311 1809
" />
</g>
<g style="fill:#000000; fill-opacity:0.0; 
stroke:#000000; stroke-width:118.11; stroke-opacity:1; 
stroke-linecap:round; stroke-linejoin:round;">
<path d="M27082 1238
L27850 1931
" />
<path d="M27015 1321
L27637 1868
" />
</g>
<g style="fill:#000000; fill-opacity:0.0; 
stroke:#000000; stroke-width:157.48; stroke-opacity:1; 
stroke-linecap:round; stroke-linejoin:round;">
<path d="M26988 1470
L27468 1852
" />
</g>
<g style="fill:#000000; fill-opacity:0.0; 
stroke:#000000; stroke-width:334.646; stroke-opacity:1; 
stroke-linecap:round; stroke-linejoin:round;">
<path d="M26972 1762
L27062 1486
" />
</g>
<g style="fill:#000000; fill-opacity:0.0; 
stroke:#000000; stroke-width:78.7402; stroke-opacity:1; 
stroke-linecap:round; stroke-linejoin:round;">
<circle cx="27952.8" cy="1968.5" r="606.414" /> 
<circle cx="27952.8" cy="17716.5" r="70.9756" /> 
<circle cx="27952.8" cy="17716.5" r="205.518" /> 
</g>
<g style="fill:#000000; fill-opacity:0.0; 
stroke:#000000; stroke-width:118.11; stroke-opacity:1; 
stroke-linecap:round; stroke-linejoin:round;">
<path d="M28826 18448
L28059 17755
" />
</g>
<g style="fill:#000000; fill-opacity:0.0; 
stroke:#000000; stroke-width:59.0551; stroke-opacity:1; 
stroke-linecap:round; stroke-linejoin:round;">
<path d="M27137 18566
L28767 16870
" />
</g>
<g style="fill:#000000; fill-opacity:0.0; 
stroke:#000000; stroke-width:39.3701; stroke-opacity:1; 
stroke-linecap:round; stroke-linejoin:round;">
<path d="M29133 17716
L26771 17716
" />
<path d="M27952 18897
L27952 16535
" />
<circle cx="27952.8" cy="17716.5" r="1181.1" /> 
</g>
<g style="fill:#000000; fill-opacity:0.0; 
stroke:#000000; stroke-width:59.0551; stroke-opacity:1; 
stroke-linecap:round; stroke-linejoin:round;">
<path d="M28787 18523
L27110 16901
" />
</g>
<g style="fill:#000000; fill-opacity:0.0; 
stroke:#000000; stroke-width:118.11; stroke-opacity:1; 
stroke-linecap:round; stroke-linejoin:round;">
<path d="M28893 18366
L28271 17818
" />
<path d="M29090 17775
L28153 17783
" />
</g>
<g style="fill:#000000; fill-opacity:0.0; 
stroke:#000000; stroke-width:157.48; stroke-opacity:1; 
stroke-linecap:round; stroke-linejoin:round;">
<path d="M28921 18216
L28440 17834
" />
</g>
<g style="fill:#000000; fill-opacity:0.0; 
stroke:#000000; stroke-width:196.85; stroke-opacity:1; 
stroke-linecap:round; stroke-linejoin:round;">
<path d="M29039 17885
L28598 17877
" />
</g>
<g style="fill:#000000; fill-opacity:0.0; 
stroke:#000000; stroke-width:334.646; stroke-opacity:1; 
stroke-linecap:round; stroke-linejoin:round;">
<path d="M28937 17925
L28846 18200
" />
</g>
<g style="fill:#000000; fill-opacity:0.0; 
stroke:#000000; stroke-width:118.11; stroke-opacity:1; 
stroke-linecap:round; stroke-linejoin:round;">
<path d="M26818 17659
L27755 17651
" />
</g>
<g style="fill:#000000; fill-opacity:0.0; 
stroke:#000000; stroke-width:196.85; stroke-opacity:1; 
stroke-linecap:round; stroke-linejoin:round;">
<path d="M26870 17549
L27311 17557
" />
</g>
<g style="fill:#000000; fill-opacity:0.0; 
stroke:#000000; stroke-width:118.11; stroke-opacity:1; 
stroke-linecap:round; stroke-linejoin:round;">
<path d="M27082 16986
L27850 17679
" />
<path d="M27015 17069
L27637 17616
" />
</g>
<g style="fill:#000000; fill-opacity:0.0; 
stroke:#000000; stroke-width:157.48; stroke-opacity:1; 
stroke-linecap:round; stroke-linejoin:round;">
<path d="M26988 17218
L27468 17600
" />
</g>
<g style="fill:#000000; fill-opacity:0.0; 
stroke:#000000; stroke-width:334.646; stroke-opacity:1; 
stroke-linecap:round; stroke-linejoin:round;">
<path d="M26972 17510
L27062 17234
" />
</g>
<g style="fill:#000000; fill-opacity:0.0; 
stroke:#000000; stroke-width:78.7402; stroke-opacity:1; 
stroke-linecap:round; stroke-linejoin:round;">
<circle cx="27952.8" cy="17716.5" r="606.414" /> 
<circle cx="1968.5" cy="17716.5" r="70.9756" /> 
<circle cx="1968.5" cy="17716.5" r="205.518" /> 
</g>
<g style="fill:#000000; fill-opacity:0.0; 
stroke:#000000; stroke-width:118.11; stroke-opacity:1; 
stroke-linecap:round; stroke-linejoin:round;">
<path d="M2842 18448
L2074 17755
" />
</g>
<g style="fill:#000000; fill-opacity:0.0; 
stroke:#000000; stroke-width:59.0551; stroke-opacity:1; 
stroke-linecap:round; stroke-linejoin:round;">
<path d="M1153 18566
L2783 16870
" />
</g>
<g style="fill:#000000; fill-opacity:0.0; 
stroke:#000000; stroke-width:39.3701; stroke-opacity:1; 
stroke-linecap:round; stroke-linejoin:round;">
<path d="M3149 17716
L787 17716
" />
<path d="M1968 18897
L1968 16535
" />
<circle cx="1968.5" cy="17716.5" r="1181.1" /> 
</g>
<g style="fill:#000000; fill-opacity:0.0; 
stroke:#000000; stroke-width:59.0551; stroke-opacity:1; 
stroke-linecap:round; stroke-linejoin:round;">
<path d="M2803 18523
L1125 16901
" />
</g>
<g style="fill:#000000; fill-opacity:0.0; 
stroke:#000000; stroke-width:118.11; stroke-opacity:1; 
stroke-linecap:round; stroke-linejoin:round;">
<path d="M2909 18366
L2287 17818
" />
<path d="M3106 17775
L2169 17783
" />
</g>
<g style="fill:#000000; fill-opacity:0.0; 
stroke:#000000; stroke-width:157.48; stroke-opacity:1; 
stroke-linecap:round; stroke-linejoin:round;">
<path d="M2937 18216
L2456 17834
" />
</g>
<g style="fill:#000000; fill-opacity:0.0; 
stroke:#000000; stroke-width:196.85; stroke-opacity:1; 
stroke-linecap:round; stroke-linejoin:round;">
<path d="M3055 17885
L2614 17877
" />
</g>
<g style="fill:#000000; fill-opacity:0.0; 
stroke:#000000; stroke-width:334.646; stroke-opacity:1; 
stroke-linecap:round; stroke-linejoin:round;">
<path d="M2952 17925
L2862 18200
" />
</g>
<g style="fill:#000000; fill-opacity:0.0; 
stroke:#000000; stroke-width:118.11; stroke-opacity:1; 
stroke-linecap:round; stroke-linejoin:round;">
<path d="M834 17659
L1771 17651
" />
</g>
<g style="fill:#000000; fill-opacity:0.0; 
stroke:#000000; stroke-width:196.85; stroke-opacity:1; 
stroke-linecap:round; stroke-linejoin:round;">
<path d="M885 17549
L1326 17557
" />
</g>
<g style="fill:#000000; fill-opacity:0.0; 
stroke:#000000; stroke-width:118.11; stroke-opacity:1; 
stroke-linecap:round; stroke-linejoin:round;">
<path d="M1098 16986
L1866 17679
" />
<path d="M1031 17069
L1653 17616
" />
</g>
<g style="fill:#000000; fill-opacity:0.0; 
stroke:#000000; stroke-width:157.48; stroke-opacity:1; 
stroke-linecap:round; stroke-linejoin:round;">
<path d="M1003 17218
L1484 17600
" />
</g>
<g style="fill:#000000; fill-opacity:0.0; 
stroke:#000000; stroke-width:334.646; stroke-opacity:1; 
stroke-linecap:round; stroke-linejoin:round;">
<path d="M988 17510
L1078 17234
" />
</g>
<g style="fill:#000000; fill-opacity:0.0; 
stroke:#000000; stroke-width:78.7402; stroke-opacity:1; 
stroke-linecap:round; stroke-linejoin:round;">
<circle cx="1968.5" cy="17716.5" r="606.414" /> 
<circle cx="1968.5" cy="1968.5" r="70.9756" /> 
<circle cx="1968.5" cy="1968.5" r="205.518" /> 
</g>
<g style="fill:#000000; fill-opacity:0.0; 
stroke:#000000; stroke-width:118.11; stroke-opacity:1; 
stroke-linecap:round; stroke-linejoin:round;">
<path d="M2842 2700
L2074 2007
" />
</g>
<g style="fill:#000000; fill-opacity:0.0; 
stroke:#000000; stroke-width:59.0551; stroke-opacity:1; 
stroke-linecap:round; stroke-linejoin:round;">
<path d="M1153 2818
L2783 1122
" />
</g>
<g style="fill:#000000; fill-opacity:0.0; 
stroke:#000000; stroke-width:39.3701; stroke-opacity:1; 
stroke-linecap:round; stroke-linejoin:round;">
<path d="M3149 1968
L787 1968
" />
<path d="M1968 3149
L1968 787
" />
<circle cx="1968.5" cy="1968.5" r="1181.1" /> 
</g>
<g style="fill:#000000; fill-opacity:0.0; 
stroke:#000000; stroke-width:59.0551; stroke-opacity:1; 
stroke-linecap:round; stroke-linejoin:round;">
<path d="M2803 2775
L1125 1153
" />
</g>
<g style="fill:#000000; fill-opacity:0.0; 
stroke:#000000; stroke-width:118.11; stroke-opacity:1; 
stroke-linecap:round; stroke-linejoin:round;">
<path d="M2909 2618
L2287 2070
" />
<path d="M3106 2027
L2169 2035
" />
</g>
<g style="fill:#000000; fill-opacity:0.0; 
stroke:#000000; stroke-width:157.48; stroke-opacity:1; 
stroke-linecap:round; stroke-linejoin:round;">
<path d="M2937 2468
L2456 2086
" />
</g>
<g style="fill:#000000; fill-opacity:0.0; 
stroke:#000000; stroke-width:196.85; stroke-opacity:1; 
stroke-linecap:round; stroke-linejoin:round;">
<path d="M3055 2137
L2614 2129
" />
</g>
<g style="fill:#000000; fill-opacity:0.0; 
stroke:#000000; stroke-width:334.646; stroke-opacity:1; 
stroke-linecap:round; stroke-linejoin:round;">
<path d="M2952 2177
L2862 2452
" />
</g>
<g style="fill:#000000; fill-opacity:0.0; 
stroke:#000000; stroke-width:118.11; stroke-opacity:1; 
stroke-linecap:round; stroke-linejoin:round;">
<path d="M834 1911
L1771 1903
" />
</g>
<g style="fill:#000000; fill-opacity:0.0; 
stroke:#000000; stroke-width:196.85; stroke-opacity:1; 
stroke-linecap:round; stroke-linejoin:round;">
<path d="M885 1801
L1326 1809
" />
</g>
<g style="fill:#000000; fill-opacity:0.0; 
stroke:#000000; stroke-width:118.11; stroke-opacity:1; 
stroke-linecap:round; stroke-linejoin:round;">
<path d="M1098 1238
L1866 1931
" />
<path d="M1031 1321
L1653 1868
" />
</g>
<g style="fill:#000000; fill-opacity:0.0; 
stroke:#000000; stroke-width:157.48; stroke-opacity:1; 
stroke-linecap:round; stroke-linejoin:round;">
<path d="M1003 1470
L1484 1852
" />
</g>
<g style="fill:#000000; fill-opacity:0.0; 
stroke:#000000; stroke-width:334.646; stroke-opacity:1; 
stroke-linecap:round; stroke-linejoin:round;">
<path d="M988 1762
L1078 1486
" />
</g>
<g style="fill:#000000; fill-opacity:0.0; 
stroke:#000000; stroke-width:78.7402; stroke-opacity:1; 
stroke-linecap:round; stroke-linejoin:round;">
<circle cx="1968.5" cy="1968.5" r="606.414" /> 
</g>
<g style="fill:#000000; fill-opacity:0.0; 
stroke:#000000; stroke-width:39.3701; stroke-opacity:1; 
stroke-linecap:round; stroke-linejoin:round;">
<path d="M7476 12451
L7476 12748
" />
<path d="M8123 12451
L8123 12748
" />
<path d="M7476.19 12748.5 A323.815 323.815 0.0 0 0 8123.81 12748.5 " />
<path d="M8123.81 12451.5 A323.815 323.815 0.0 0 0 7476.19 12451.5 " />
<path d="M6137 12452
L6137 12748
" />
<path d="M6785 12452
L6785 12748
" />
<path d="M6137.1 12748 A324.315 324.315 0.0 0 0 6785.73 12748 " />
<path d="M6785.73 12452 A324.315 324.315 0.0 0 0 6137.1 12452 " />
<path d="M4798 12452
L4798 12748
" />
<path d="M5447 12452
L5447 12748
" />
<path d="M4798.52 12748 A324.315 324.315 0.0 0 0 5447.15 12748 " />
<path d="M5447.15 12452 A324.315 324.315 0.0 0 0 4798.52 12452 " />
<circle cx="10004.7" cy="11025.2" r="570.866" /> 
<circle cx="2918.11" cy="11025.2" r="570.866" /> 
<path d="M22528 10073
L22528 9776
" />
<path d="M21880 10073
L21880 9776
" />
<path d="M22528.5 9776.7 A323.815 323.815 0.0 0 0 21880.9 9776.7 " />
<path d="M21880.9 10073.7 A323.815 323.815 0.0 0 0 22528.5 10073.7 " />
<path d="M23867 10073
L23867 9777
" />
<path d="M23218 10073
L23218 9777
" />
<path d="M23867.6 9777.2 A324.315 324.315 0.0 0 0 23219 9777.2 " />
<path d="M23219 10073.2 A324.315 324.315 0.0 0 0 23867.6 10073.2 " />
<path d="M25206 10073
L25206 9777
" />
<path d="M24557 10073
L24557 9777
" />
<path d="M25206.2 9777.2 A324.315 324.315 0.0 0 0 24557.6 9777.2 " />
<path d="M24557.6 10073.2 A324.315 324.315 0.0 0 0 25206.2 10073.2 " />
<circle cx="20000" cy="11500" r="570.866" /> 
<circle cx="27086.6" cy="11500" r="570.866" /> 
<path d="M17499 3624
L17499 2844
" />
<path d="M16758 3624
L16758 2844
" />
<path d="M17499.4 2844.65 A370.315 370.315 0.0 0 0 16758.8 2844.65 " />
<path d="M16758.8 3624.65 A370.315 370.315 0.0 0 0 17499.4 3624.65 " />
<path d="M15530 3624
L15530 2844
" />
<path d="M14790 3624
L14790 2844
" />
<path d="M15530.9 2844.65 A370.315 370.315 0.0 0 0 14790.3 2844.65 " />
<path d="M14790.3 3624.65 A370.315 370.315 0.0 0 0 15530.9 3624.65 " />
<path d="M13562 3624
L13562 2844
" />
<path d="M12821 3624
L12821 2844
" />
<path d="M13562.4 2844.65 A370.315 370.315 0.0 0 0 12821.8 2844.65 " />
<path d="M12821.8 3624.65 A370.315 370.315 0.0 0 0 13562.4 3624.65 " />
<path d="M13333 16368
L13333 17148
" />
<path d="M14074 16368
L14074 17148
" />
<path d="M13333.6 17148.3 A370.315 370.315 0.0 0 0 14074.3 17148.3 " />
<path d="M14074.3 16368.3 A370.315 370.315 0.0 0 0 13333.6 16368.3 " />
<path d="M15302 16368
L15302 17148
" />
<path d="M16042 16368
L16042 17148
" />
<path d="M15302.1 17148.3 A370.315 370.315 0.0 0 0 16042.8 17148.3 " />
<path d="M16042.8 16368.3 A370.315 370.315 0.0 0 0 15302.1 16368.3 " />
<path d="M17270 16368
L17270 17148
" />
<path d="M18011 16368
L18011 17148
" />
<path d="M17270.6 17148.3 A370.315 370.315 0.0 0 0 18011.3 17148.3 " />
<path d="M18011.3 16368.3 A370.315 370.315 0.0 0 0 17270.6 16368.3 " />
<polyline fill="none;"
points="18507,6010
18507,6797
17719,6797
17719,6010
18507,6010
" /> 
<circle cx="16105.5" cy="6403.94" r="393.701" /> 
<circle cx="12089.8" cy="6403.94" r="393.701" /> 
<circle cx="14097.6" cy="6403.94" r="393.701" /> 
<polyline fill="none;"
points="26184,5104
26184,4356
26932,4356
26932,5104
26184,5104
" /> 
<circle cx="28526.8" cy="4730.71" r="374.016" /> 
<polyline fill="none;"
points="2559,7992
1811,7992
1811,7244
2559,7244
2559,7992
" /> 
<circle cx="2185.04" cy="5649.61" r="374.016" /> 
<polyline fill="none;"
points="20121,16128
20121,15380
20869,15380
20869,16128
20121,16128
" /> 
<circle cx="20495.3" cy="17486.6" r="374.016" /> 
<polyline fill="none;"
points="10731,17211
10731,17959
9983,17959
9983,17211
10731,17211
" /> 
<circle cx="10357.5" cy="15852.8" r="374.016" /> 
<circle cx="13133.1" cy="9274.02" r="374.016" /> 
<circle cx="13133.1" cy="13274" r="374.016" /> 
<circle cx="16971.7" cy="9313.39" r="374.016" /> 
<circle cx="16971.7" cy="13313.4" r="374.016" /> 
</g>
<g style="fill:#000000; fill-opacity:0.0; 
stroke:#000000; stroke-width:59.0551; stroke-opacity:1; 
stroke-linecap:round; stroke-linejoin:round;">
<path d="M8558 18197
L8534 18222
L8460 18246
L8412 18246
L8339 18222
L8290 18173
L8265 18124
L8241 18027
L8241 17954
L8265 17856
L8290 17807
L8339 17759
L8412 17734
L8460 17734
L8534 17759
L8558 17783
" />
<path d="M9045 18246
L8753 18246
" />
<path d="M8899 18246
L8899 17734
L8850 17807
L8802 17856
L8753 17880
" />
<path d="M9338 17954
L9289 17929
L9265 17905
L9240 17856
L9240 17832
L9265 17783
L9289 17759
L9338 17734
L9435 17734
L9484 17759
L9508 17783
L9533 17832
L9533 17856
L9508 17905
L9484 17929
L9435 17954
L9338 17954
L9289 17978
L9265 18002
L9240 18051
L9240 18149
L9265 18197
L9289 18222
L9338 18246
L9435 18246
L9484 18222
L9508 18197
L9533 18149
L9533 18051
L9508 18002
L9484 17978
L9435 17954
" />
<path d="M8146 18705
L8146 19046
" />
<path d="M8024 18510
L7902 18875
L8219 18875
" />
<path d="M8365 18534
L8707 18534
L8487 19046
" />
<path d="M8999 18534
L9048 18534
L9097 18559
L9121 18583
L9145 18632
L9170 18729
L9170 18851
L9145 18949
L9121 18997
L9097 19022
L9048 19046
L8999 19046
L8950 19022
L8926 18997
L8902 18949
L8877 18851
L8877 18729
L8902 18632
L8926 18583
L8950 18559
L8999 18534
" />
<path d="M9608 18705
L9608 19046
" />
<path d="M9389 18705
L9389 18973
L9413 19022
L9462 19046
L9535 19046
L9584 19022
L9608 18997
" />
<path d="M10023 18778
L9852 18778
" />
<path d="M9852 19046
L9852 18534
L10096 18534
" />
<path d="M3058 12079
L3058 12557
L3086 12614
L3114 12642
L3171 12670
L3283 12670
L3339 12642
L3368 12614
L3396 12557
L3396 12079
" />
<path d="M3930 12276
L3930 12670
" />
<path d="M3789 12051
L3649 12473
L4014 12473
" />
</g>
<g style="fill:#000000; fill-opacity:0.0; 
stroke:#000000; stroke-width:62.9921; stroke-opacity:1; 
stroke-linecap:round; stroke-linejoin:round;">
<path d="M1415 12510
L1415 12754
L903 12754
" />
<path d="M1415 12340
L903 12340
L1269 12169
L903 11999
L1415 11999
" />
<path d="M903 11804
L903 11462
L1415 11682
" />
<path d="M1415 11243
L1415 11146
L1391 11097
L1367 11073
L1293 11024
L1196 10999
L1001 10999
L952 11024
L928 11048
L903 11097
L903 11194
L928 11243
L952 11268
L1001 11292
L1123 11292
L1172 11268
L1196 11243
L1220 11194
L1220 11097
L1196 11048
L1172 11024
L1123 10999
" />
<path d="M1415 10512
L1415 10804
" />
<path d="M1415 10658
L903 10658
L977 10707
L1025 10756
L1050 10804
" />
<path d="M1123 10220
L1098 10268
L1074 10293
L1025 10317
L1001 10317
L952 10293
L928 10268
L903 10220
L903 10122
L928 10073
L952 10049
L1001 10025
L1025 10025
L1074 10049
L1098 10073
L1123 10122
L1123 10220
L1147 10268
L1172 10293
L1220 10317
L1318 10317
L1367 10293
L1391 10268
L1415 10220
L1415 10122
L1391 10073
L1367 10049
L1318 10025
L1220 10025
L1172 10049
L1147 10073
L1123 10122
" />
<path d="M1367 9513
L1391 9537
L1415 9610
L1415 9659
L1391 9732
L1342 9781
L1293 9805
L1196 9830
L1123 9830
L1025 9805
L977 9781
L928 9732
L903 9659
L903 9610
L928 9537
L952 9513
" />
<path d="M903 9367
L903 9074
" />
<path d="M1415 9220
L903 9220
" />
</g>
<g style="fill:#000000; fill-opacity:0.0; 
stroke:#000000; stroke-width:59.0551; stroke-opacity:1; 
stroke-linecap:round; stroke-linejoin:round;">
<path d="M3564 8767
L3564 8176
L3704 8176
L3789 8204
L3845 8260
L3873 8317
L3901 8429
L3901 8514
L3873 8626
L3845 8682
L3789 8739
L3704 8767
L3564 8767
" />
<path d="M4182 8767
L4295 8767
L4351 8739
L4379 8710
L4435 8626
L4464 8514
L4464 8289
L4435 8232
L4407 8204
L4351 8176
L4239 8176
L4182 8204
L4154 8232
L4126 8289
L4126 8429
L4154 8485
L4182 8514
L4239 8542
L4351 8542
L4407 8514
L4435 8485
L4464 8429
" />
<path d="M7434 8767
L7097 8767
" />
<path d="M7265 8767
L7265 8176
L7209 8260
L7153 8317
L7097 8345
" />
<path d="M7687 8767
L7687 8176
L8025 8767
L8025 8176
" />
<path d="M8559 8373
L8559 8767
" />
<path d="M8418 8148
L8278 8570
L8643 8570
" />
<path d="M8981 8176
L9037 8176
L9093 8204
L9121 8232
L9149 8289
L9178 8401
L9178 8542
L9149 8654
L9121 8710
L9093 8739
L9037 8767
L8981 8767
L8924 8739
L8896 8710
L8868 8654
L8840 8542
L8840 8401
L8868 8289
L8896 8232
L8924 8204
L8981 8176
" />
<path d="M9543 8176
L9599 8176
L9656 8204
L9684 8232
L9712 8289
L9740 8401
L9740 8542
L9712 8654
L9684 8710
L9656 8739
L9599 8767
L9543 8767
L9487 8739
L9459 8710
L9431 8654
L9403 8542
L9403 8401
L9431 8289
L9459 8232
L9487 8204
L9543 8176
" />
<path d="M9937 8176
L10331 8176
L10077 8767
" />
<path d="M3570 1082
L3546 1107
L3473 1131
L3424 1131
L3351 1107
L3302 1058
L3278 1009
L3254 912
L3254 839
L3278 741
L3302 692
L3351 644
L3424 619
L3473 619
L3546 644
L3570 668
" />
<path d="M4058 1131
L3765 1131
" />
<path d="M3912 1131
L3912 619
L3863 692
L3814 741
L3765 765
" />
<path d="M4497 619
L4399 619
L4350 644
L4326 668
L4277 741
L4253 839
L4253 1034
L4277 1082
L4302 1107
L4350 1131
L4448 1131
L4497 1107
L4521 1082
L4545 1034
L4545 912
L4521 863
L4497 839
L4448 814
L4350 814
L4302 839
L4277 863
L4253 912
" />
<path d="M5147 6219
L5464 6219
L5293 6414
L5366 6414
L5415 6439
L5439 6463
L5464 6512
L5464 6634
L5439 6682
L5415 6707
L5366 6731
L5220 6731
L5171 6707
L5147 6682
" />
<path d="M5634 6219
L5951 6219
L5781 6414
L5854 6414
L5902 6439
L5927 6463
L5951 6512
L5951 6634
L5927 6682
L5902 6707
L5854 6731
L5707 6731
L5659 6707
L5634 6682
" />
<path d="M6268 6219
L6317 6219
L6365 6244
L6390 6268
L6414 6317
L6439 6414
L6439 6536
L6414 6634
L6390 6682
L6365 6707
L6317 6731
L6268 6731
L6219 6707
L6195 6682
L6170 6634
L6146 6536
L6146 6414
L6170 6317
L6195 6268
L6219 6244
L6268 6219
" />
<path d="M6755 6219
L6804 6219
L6853 6244
L6877 6268
L6902 6317
L6926 6414
L6926 6536
L6902 6634
L6877 6682
L6853 6707
L6804 6731
L6755 6731
L6707 6707
L6682 6682
L6658 6634
L6634 6536
L6634 6414
L6658 6317
L6682 6268
L6707 6244
L6755 6219
" />
<path d="M7365 6390
L7365 6731
" />
<path d="M7145 6390
L7145 6658
L7170 6707
L7218 6731
L7292 6731
L7340 6707
L7365 6682
" />
<path d="M7779 6463
L7608 6463
" />
<path d="M7608 6731
L7608 6219
L7852 6219
" />
<path d="M25870 982
L25846 1007
L25773 1031
L25724 1031
L25651 1007
L25602 958
L25578 909
L25554 812
L25554 739
L25578 641
L25602 592
L25651 544
L25724 519
L25773 519
L25846 544
L25870 568
" />
<path d="M26358 1031
L26065 1031
" />
<path d="M26212 1031
L26212 519
L26163 592
L26114 641
L26065 665
" />
<path d="M26821 519
L26577 519
L26553 763
L26577 739
L26626 714
L26748 714
L26797 739
L26821 763
L26845 812
L26845 934
L26821 982
L26797 1007
L26748 1031
L26626 1031
L26577 1007
L26553 982
" />
<path d="M22047 5619
L22364 5619
L22193 5814
L22266 5814
L22315 5839
L22339 5863
L22364 5912
L22364 6034
L22339 6082
L22315 6107
L22266 6131
L22120 6131
L22071 6107
L22047 6082
" />
<path d="M22534 5619
L22851 5619
L22681 5814
L22754 5814
L22802 5839
L22827 5863
L22851 5912
L22851 6034
L22827 6082
L22802 6107
L22754 6131
L22607 6131
L22559 6107
L22534 6082
" />
<path d="M23168 5619
L23217 5619
L23265 5644
L23290 5668
L23314 5717
L23339 5814
L23339 5936
L23314 6034
L23290 6082
L23265 6107
L23217 6131
L23168 6131
L23119 6107
L23095 6082
L23070 6034
L23046 5936
L23046 5814
L23070 5717
L23095 5668
L23119 5644
L23168 5619
" />
<path d="M23655 5619
L23704 5619
L23753 5644
L23777 5668
L23802 5717
L23826 5814
L23826 5936
L23802 6034
L23777 6082
L23753 6107
L23704 6131
L23655 6131
L23607 6107
L23582 6082
L23558 6034
L23534 5936
L23534 5814
L23558 5717
L23582 5668
L23607 5644
L23655 5619
" />
<path d="M24265 5790
L24265 6131
" />
<path d="M24045 5790
L24045 6058
L24070 6107
L24118 6131
L24192 6131
L24240 6107
L24265 6082
" />
<path d="M24679 5863
L24508 5863
" />
<path d="M24508 6131
L24508 5619
L24752 5619
" />
<path d="M26046 9798
L26046 10276
L26074 10332
L26102 10361
L26158 10389
L26271 10389
L26327 10361
L26355 10332
L26383 10276
L26383 9798
" />
<path d="M26608 9798
L26974 9798
L26777 10023
L26861 10023
L26917 10051
L26946 10079
L26974 10136
L26974 10276
L26946 10332
L26917 10361
L26861 10389
L26692 10389
L26636 10361
L26608 10332
" />
</g>
<g style="fill:#000000; fill-opacity:0.0; 
stroke:#000000; stroke-width:62.9921; stroke-opacity:1; 
stroke-linecap:round; stroke-linejoin:round;">
<path d="M29052 13353
L29052 13596
L28540 13596
" />
<path d="M29052 13182
L28540 13182
L28905 13011
L28540 12841
L29052 12841
" />
<path d="M28540 12646
L28540 12305
L29052 12524
" />
<path d="M28759 12037
L28735 12085
L28710 12110
L28662 12134
L28637 12134
L28588 12110
L28564 12085
L28540 12037
L28540 11939
L28564 11890
L28588 11866
L28637 11842
L28662 11842
L28710 11866
L28735 11890
L28759 11939
L28759 12037
L28783 12085
L28808 12110
L28857 12134
L28954 12134
L29003 12110
L29027 12085
L29052 12037
L29052 11939
L29027 11890
L29003 11866
L28954 11842
L28857 11842
L28808 11866
L28783 11890
L28759 11939
" />
<path d="M29052 11354
L29052 11647
" />
<path d="M29052 11500
L28540 11500
L28613 11549
L28662 11598
L28686 11647
" />
<path d="M28759 11062
L28735 11110
L28710 11135
L28662 11159
L28637 11159
L28588 11135
L28564 11110
L28540 11062
L28540 10964
L28564 10915
L28588 10891
L28637 10867
L28662 10867
L28710 10891
L28735 10915
L28759 10964
L28759 11062
L28783 11110
L28808 11135
L28857 11159
L28954 11159
L29003 11135
L29027 11110
L29052 11062
L29052 10964
L29027 10915
L29003 10891
L28954 10867
L28857 10867
L28808 10891
L28783 10915
L28759 10964
" />
<path d="M28905 10672
L28905 10428
" />
<path d="M29052 10720
L28540 10550
L29052 10379
" />
<path d="M29003 9916
L29027 9941
L29052 10014
L29052 10062
L29027 10136
L28978 10184
L28930 10209
L28832 10233
L28759 10233
L28662 10209
L28613 10184
L28564 10136
L28540 10062
L28540 10014
L28564 9941
L28588 9916
" />
<path d="M28540 9770
L28540 9478
" />
<path d="M29052 9624
L28540 9624
" />
</g>
<g style="fill:#000000; fill-opacity:0.0; 
stroke:#000000; stroke-width:59.0551; stroke-opacity:1; 
stroke-linecap:round; stroke-linejoin:round;">
<path d="M21364 8367
L21364 7776
L21504 7776
L21589 7804
L21645 7860
L21673 7917
L21701 8029
L21701 8114
L21673 8226
L21645 8282
L21589 8339
L21504 8367
L21364 8367
" />
<path d="M22207 7776
L22095 7776
L22039 7804
L22010 7832
L21954 7917
L21926 8029
L21926 8254
L21954 8310
L21982 8339
L22039 8367
L22151 8367
L22207 8339
L22235 8310
L22264 8254
L22264 8114
L22235 8057
L22207 8029
L22151 8001
L22039 8001
L21982 8029
L21954 8057
L21926 8114
" />
<path d="M23134 8367
L22797 8367
" />
<path d="M22965 8367
L22965 7776
L22909 7860
L22853 7917
L22797 7945
" />
<path d="M23387 8367
L23387 7776
L23725 8367
L23725 7776
" />
<path d="M24259 7973
L24259 8367
" />
<path d="M24118 7748
L23978 8170
L24343 8170
" />
<path d="M24681 7776
L24737 7776
L24793 7804
L24821 7832
L24849 7889
L24878 8001
L24878 8142
L24849 8254
L24821 8310
L24793 8339
L24737 8367
L24681 8367
L24624 8339
L24596 8310
L24568 8254
L24540 8142
L24540 8001
L24568 7889
L24596 7832
L24624 7804
L24681 7776
" />
<path d="M25243 7776
L25299 7776
L25356 7804
L25384 7832
L25412 7889
L25440 8001
L25440 8142
L25412 8254
L25384 8310
L25356 8339
L25299 8367
L25243 8367
L25187 8339
L25159 8310
L25131 8254
L25103 8142
L25103 8001
L25131 7889
L25159 7832
L25187 7804
L25243 7776
" />
<path d="M25637 7776
L26031 7776
L25777 8367
" />
<path d="M21467 5835
L20876 5835
L20876 5695
L20904 5610
L20960 5554
L21017 5526
L21129 5498
L21214 5498
L21326 5526
L21382 5554
L21439 5610
L21467 5695
L21467 5835
" />
<path d="M20876 5301
L20876 4907
L21467 5160
" />
<path d="M19167 4665
L19167 5002
" />
<path d="M19167 4834
L18576 4834
L18660 4890
L18717 4946
L18745 5002
" />
<path d="M19167 4412
L18576 4412
L19167 4074
L18576 4074
" />
<path d="M18773 3540
L19167 3540
" />
<path d="M18548 3681
L18970 3821
L18970 3456
" />
<path d="M18576 3118
L18576 3062
L18604 3006
L18632 2978
L18689 2950
L18801 2921
L18942 2921
L19054 2950
L19110 2978
L19139 3006
L19167 3062
L19167 3118
L19139 3175
L19110 3203
L19054 3231
L18942 3259
L18801 3259
L18689 3231
L18632 3203
L18604 3175
L18576 3118
" />
<path d="M18576 2556
L18576 2500
L18604 2443
L18632 2415
L18689 2387
L18801 2359
L18942 2359
L19054 2387
L19110 2415
L19139 2443
L19167 2500
L19167 2556
L19139 2612
L19110 2640
L19054 2668
L18942 2696
L18801 2696
L18689 2668
L18632 2640
L18604 2612
L18576 2556
" />
<path d="M18576 2162
L18576 1768
L19167 2022
" />
<path d="M8782 1467
L8782 876
L8923 876
L9007 904
L9064 960
L9092 1017
L9120 1129
L9120 1214
L9092 1326
L9064 1382
L9007 1439
L8923 1467
L8782 1467
" />
<path d="M9682 1467
L9345 1467
" />
<path d="M9514 1467
L9514 876
L9457 960
L9401 1017
L9345 1045
" />
<path d="M10048 876
L10104 876
L10160 904
L10188 932
L10217 989
L10245 1101
L10245 1242
L10217 1354
L10188 1410
L10160 1439
L10104 1467
L10048 1467
L9992 1439
L9964 1410
L9935 1354
L9907 1242
L9907 1101
L9935 989
L9964 932
L9992 904
L10048 876
" />
<path d="M11267 4565
L11267 4902
" />
<path d="M11267 4734
L10676 4734
L10760 4790
L10817 4846
L10845 4902
" />
<path d="M11267 4312
L10676 4312
L11267 3974
L10676 3974
" />
<path d="M10873 3440
L11267 3440
" />
<path d="M10648 3581
L11070 3721
L11070 3356
" />
<path d="M10676 3018
L10676 2962
L10704 2906
L10732 2878
L10789 2850
L10901 2821
L11042 2821
L11154 2850
L11210 2878
L11239 2906
L11267 2962
L11267 3018
L11239 3075
L11210 3103
L11154 3131
L11042 3159
L10901 3159
L10789 3131
L10732 3103
L10704 3075
L10676 3018
" />
<path d="M10676 2456
L10676 2400
L10704 2343
L10732 2315
L10789 2287
L10901 2259
L11042 2259
L11154 2287
L11210 2315
L11239 2343
L11267 2400
L11267 2456
L11239 2512
L11210 2540
L11154 2568
L11042 2596
L10901 2596
L10789 2568
L10732 2540
L10704 2512
L10676 2456
" />
<path d="M10676 2062
L10676 1668
L11267 1922
" />
<path d="M19264 1567
L19264 976
L19489 976
L19545 1004
L19573 1032
L19601 1089
L19601 1173
L19573 1229
L19545 1257
L19489 1285
L19264 1285
" />
<path d="M20164 1567
L19826 1567
" />
<path d="M19995 1567
L19995 976
L19939 1060
L19882 1117
L19826 1145
" />
<path d="M11464 18267
L11464 17676
L11689 17676
L11745 17704
L11773 17732
L11801 17789
L11801 17873
L11773 17929
L11745 17957
L11689 17985
L11464 17985
" />
<path d="M12026 17732
L12054 17704
L12110 17676
L12251 17676
L12307 17704
L12335 17732
L12364 17789
L12364 17845
L12335 17929
L11998 18267
L12364 18267
" />
<path d="M10722 8431
L10722 7919
L10844 7919
L10917 7944
L10965 7992
L10990 8041
L11014 8139
L11014 8212
L10990 8309
L10965 8358
L10917 8407
L10844 8431
L10722 8431
" />
<path d="M11185 7919
L11502 7919
L11331 8114
L11404 8114
L11453 8139
L11477 8163
L11502 8212
L11502 8334
L11477 8382
L11453 8407
L11404 8431
L11258 8431
L11209 8407
L11185 8382
" />
<path d="M14415 8163
L14488 8187
L14512 8212
L14537 8260
L14537 8334
L14512 8382
L14488 8407
L14439 8431
L14244 8431
L14244 7919
L14415 7919
L14464 7944
L14488 7968
L14512 8017
L14512 8065
L14488 8114
L14464 8139
L14415 8163
L14244 8163
" />
<path d="M15049 8431
L14878 8187
" />
<path d="M14756 8431
L14756 7919
L14951 7919
L15000 7944
L15024 7968
L15049 8017
L15049 8090
L15024 8139
L15000 8163
L14951 8187
L14756 8187
" />
<path d="M15268 8431
L15268 7919
" />
<path d="M15512 8431
L15512 7919
L15634 7919
L15707 7944
L15755 7992
L15780 8041
L15804 8139
L15804 8212
L15780 8309
L15755 8358
L15707 8407
L15634 8431
L15512 8431
" />
<path d="M16292 7944
L16243 7919
L16170 7919
L16097 7944
L16048 7992
L16023 8041
L15999 8139
L15999 8212
L16023 8309
L16048 8358
L16097 8407
L16170 8431
L16218 8431
L16292 8407
L16316 8382
L16316 8212
L16218 8212
" />
<path d="M16535 8163
L16706 8163
" />
<path d="M16779 8431
L16535 8431
L16535 7919
L16779 7919
" />
<path d="M25470 6282
L25446 6307
L25373 6331
L25324 6331
L25251 6307
L25202 6258
L25178 6209
L25154 6112
L25154 6039
L25178 5941
L25202 5892
L25251 5844
L25324 5819
L25373 5819
L25446 5844
L25470 5868
" />
<path d="M25958 6331
L25665 6331
" />
<path d="M25812 6331
L25812 5819
L25763 5892
L25714 5941
L25665 5965
" />
<path d="M26397 5990
L26397 6331
" />
<path d="M26275 5795
L26153 6160
L26470 6160
" />
<path d="M26915 5868
L26939 5844
L26988 5819
L27110 5819
L27159 5844
L27183 5868
L27207 5917
L27207 5965
L27183 6039
L26891 6331
L27207 6331
" />
<path d="M27402 5868
L27427 5844
L27476 5819
L27597 5819
L27646 5844
L27670 5868
L27695 5917
L27695 5965
L27670 6039
L27378 6331
L27695 6331
" />
<path d="M28012 5819
L28060 5819
L28109 5844
L28134 5868
L28158 5917
L28182 6014
L28182 6136
L28158 6234
L28134 6282
L28109 6307
L28060 6331
L28012 6331
L27963 6307
L27939 6282
L27914 6234
L27890 6136
L27890 6014
L27914 5917
L27939 5868
L27963 5844
L28012 5819
" />
<path d="M28402 5990
L28402 6331
" />
<path d="M28402 6039
L28426 6014
L28475 5990
L28548 5990
L28597 6014
L28621 6063
L28621 6331
" />
<path d="M29035 6063
L28865 6063
" />
<path d="M28865 6331
L28865 5819
L29108 5819
" />
<path d="M1670 4982
L1646 5007
L1573 5031
L1524 5031
L1451 5007
L1402 4958
L1378 4909
L1354 4812
L1354 4739
L1378 4641
L1402 4592
L1451 4544
L1524 4519
L1573 4519
L1646 4544
L1670 4568
" />
<path d="M2158 5031
L1865 5031
" />
<path d="M2012 5031
L2012 4519
L1963 4592
L1914 4641
L1865 4665
" />
<path d="M2329 4519
L2670 4519
L2450 5031
" />
<path d="M3468 6784
L3444 6760
L3419 6711
L3419 6589
L3444 6540
L3468 6516
L3517 6492
L3565 6492
L3639 6516
L3931 6808
L3931 6492
" />
<path d="M3468 6297
L3444 6272
L3419 6223
L3419 6102
L3444 6053
L3468 6029
L3517 6004
L3565 6004
L3639 6029
L3931 6321
L3931 6004
" />
<path d="M3419 5687
L3419 5639
L3444 5590
L3468 5565
L3517 5541
L3614 5517
L3736 5517
L3834 5541
L3882 5565
L3907 5590
L3931 5639
L3931 5687
L3907 5736
L3882 5760
L3834 5785
L3736 5809
L3614 5809
L3517 5785
L3468 5760
L3444 5736
L3419 5687
" />
<path d="M3590 5297
L3931 5297
" />
<path d="M3639 5297
L3614 5273
L3590 5224
L3590 5151
L3614 5102
L3663 5078
L3931 5078
" />
<path d="M3663 4664
L3663 4834
" />
<path d="M3931 4834
L3419 4834
L3419 4591
" />
<path d="M21164 18367
L21164 17776
L21304 17776
L21389 17804
L21445 17860
L21473 17917
L21501 18029
L21501 18114
L21473 18226
L21445 18282
L21389 18339
L21304 18367
L21164 18367
" />
<path d="M22064 18367
L21726 18367
" />
<path d="M21895 18367
L21895 17776
L21839 17860
L21782 17917
L21726 17945
" />
<path d="M20720 15067
L20439 15067
L20439 14476
" />
<path d="M20917 14757
L21114 14757
" />
<path d="M21198 15067
L20917 15067
L20917 14476
L21198 14476
" />
<path d="M21451 15067
L21451 14476
L21592 14476
L21676 14504
L21732 14560
L21760 14617
L21788 14729
L21788 14814
L21760 14926
L21732 14982
L21676 15039
L21592 15067
L21451 15067
" />
<path d="M19045 18167
L19045 17576
" />
<path d="M19382 18167
L19129 17829
" />
<path d="M19382 17576
L19045 17914
" />
<path d="M7964 16567
L7964 15976
L8104 15976
L8189 16004
L8245 16060
L8273 16117
L8301 16229
L8301 16314
L8273 16426
L8245 16482
L8189 16539
L8104 16567
L7964 16567
" />
<path d="M8526 16032
L8554 16004
L8610 15976
L8751 15976
L8807 16004
L8835 16032
L8864 16089
L8864 16145
L8835 16229
L8498 16567
L8864 16567
" />
<path d="M9620 15367
L9339 15367
L9339 14776
" />
<path d="M9817 15057
L10014 15057
" />
<path d="M10098 15367
L9817 15367
L9817 14776
L10098 14776
" />
<path d="M10351 15367
L10351 14776
L10492 14776
L10576 14804
L10632 14860
L10660 14917
L10688 15029
L10688 15114
L10660 15226
L10632 15282
L10576 15339
L10492 15367
L10351 15367
" />
<path d="M11845 17067
L11845 16476
" />
<path d="M12182 17067
L11929 16729
" />
<path d="M12182 16476
L11845 16814
" />
<path d="M12301 10343
L12057 10514
" />
<path d="M12301 10636
L11789 10636
L11789 10441
L11814 10392
L11838 10367
L11887 10343
L11960 10343
L12009 10367
L12033 10392
L12057 10441
L12057 10636
" />
<path d="M11789 10172
L11789 9831
L12301 10051
" />
<path d="M12301 12186
L12301 12478
" />
<path d="M12301 12332
L11789 12332
L11862 12381
L11911 12430
L11936 12478
" />
<path d="M11789 11869
L11789 11820
L11814 11772
L11838 11747
L11887 11723
L11984 11699
L12106 11699
L12204 11723
L12252 11747
L12277 11772
L12301 11820
L12301 11869
L12277 11918
L12252 11942
L12204 11967
L12106 11991
L11984 11991
L11887 11967
L11838 11942
L11814 11918
L11789 11869
" />
<path d="M12301 11479
L11789 11479
" />
<path d="M12301 11187
L12009 11406
" />
<path d="M11789 11187
L12082 11479
" />
<path d="M18231 12185
L17987 12355
" />
<path d="M18231 12477
L17719 12477
L17719 12282
L17744 12234
L17768 12209
L17817 12185
L17890 12185
L17939 12209
L17963 12234
L17987 12282
L17987 12477
" />
<path d="M18231 11697
L18231 11990
" />
<path d="M18231 11844
L17719 11844
L17792 11892
L17841 11941
L17865 11990
" />
<path d="M18231 10853
L18231 11145
" />
<path d="M18231 10999
L17719 10999
L17792 11048
L17841 11097
L17865 11145
" />
<path d="M17719 10536
L17719 10487
L17744 10439
L17768 10414
L17817 10390
L17914 10365
L18036 10365
L18134 10390
L18182 10414
L18207 10439
L18231 10487
L18231 10536
L18207 10585
L18182 10609
L18134 10634
L18036 10658
L17914 10658
L17817 10634
L17768 10609
L17744 10585
L17719 10536
" />
<path d="M18231 10146
L17719 10146
" />
<path d="M18231 9854
L17939 10073
" />
<path d="M17719 9854
L18012 10146
" />
<path d="M25270 15182
L25246 15207
L25173 15231
L25124 15231
L25051 15207
L25002 15158
L24978 15109
L24954 15012
L24954 14939
L24978 14841
L25002 14792
L25051 14744
L25124 14719
L25173 14719
L25246 14744
L25270 14768
" />
<path d="M25758 15231
L25465 15231
" />
<path d="M25612 15231
L25612 14719
L25563 14792
L25514 14841
L25465 14865
" />
<path d="M25929 14719
L26245 14719
L26075 14914
L26148 14914
L26197 14939
L26221 14963
L26245 15012
L26245 15134
L26221 15182
L26197 15207
L26148 15231
L26002 15231
L25953 15207
L25929 15182
" />
<path d="M26359 15690
L26359 16031
" />
<path d="M26237 15495
L26115 15860
L26432 15860
" />
<path d="M26578 15519
L26919 15519
L26700 16031
" />
<path d="M27212 15519
L27260 15519
L27309 15544
L27334 15568
L27358 15617
L27382 15714
L27382 15836
L27358 15934
L27334 15982
L27309 16007
L27260 16031
L27212 16031
L27163 16007
L27139 15982
L27114 15934
L27090 15836
L27090 15714
L27114 15617
L27139 15568
L27163 15544
L27212 15519
" />
<path d="M27821 15690
L27821 16031
" />
<path d="M27602 15690
L27602 15958
L27626 16007
L27675 16031
L27748 16031
L27797 16007
L27821 15982
" />
<path d="M28235 15763
L28065 15763
" />
<path d="M28065 16031
L28065 15519
L28308 15519
" />
</g>
<g style="fill:#000000; fill-opacity:0.0; 
stroke:#000000; stroke-width:39.3701; stroke-opacity:1; 
stroke-linecap:round; stroke-linejoin:round;">
<path d="M27532 994
L27654 994
L27589 1069
L27617 1069
L27635 1078
L27645 1088
L27654 1107
L27654 1153
L27645 1172
L27635 1182
L27617 1191
L27560 1191
L27542 1182
L27532 1172
" />
</g>
<g style="fill:#000000; fill-opacity:0.0; 
stroke:#000000; stroke-width:59.0551; stroke-opacity:1; 
stroke-linecap:round; stroke-linejoin:round;">
<path d="M28307 2814
L28215 2814
" />
<path d="M28215 2959
L28215 2683
L28346 2683
" />
<path d="M27534 2934
L27740 2671
" />
<path d="M27534 2671
L27740 2934
" />
</g>
<g style="fill:#000000; fill-opacity:0.0; 
stroke:#000000; stroke-width:39.3701; stroke-opacity:1; 
stroke-linecap:round; stroke-linejoin:round;">
<path d="M28241 994
L28363 994
L28297 1069
L28325 1069
L28344 1078
L28353 1088
L28363 1107
L28363 1153
L28353 1172
L28344 1182
L28325 1191
L28269 1191
L28250 1182
L28241 1172
" />
<path d="M27532 16742
L27654 16742
L27589 16817
L27617 16817
L27635 16826
L27645 16836
L27654 16855
L27654 16901
L27645 16920
L27635 16930
L27617 16939
L27560 16939
L27542 16930
L27532 16920
" />
</g>
<g style="fill:#000000; fill-opacity:0.0; 
stroke:#000000; stroke-width:59.0551; stroke-opacity:1; 
stroke-linecap:round; stroke-linejoin:round;">
<path d="M28307 18562
L28215 18562
" />
<path d="M28215 18707
L28215 18431
L28346 18431
" />
<path d="M27534 18682
L27740 18419
" />
<path d="M27534 18419
L27740 18682
" />
</g>
<g style="fill:#000000; fill-opacity:0.0; 
stroke:#000000; stroke-width:39.3701; stroke-opacity:1; 
stroke-linecap:round; stroke-linejoin:round;">
<path d="M28241 16742
L28363 16742
L28297 16817
L28325 16817
L28344 16826
L28353 16836
L28363 16855
L28363 16901
L28353 16920
L28344 16930
L28325 16939
L28269 16939
L28250 16930
L28241 16920
" />
<path d="M1548 16742
L1670 16742
L1604 16817
L1632 16817
L1651 16826
L1661 16836
L1670 16855
L1670 16901
L1661 16920
L1651 16930
L1632 16939
L1576 16939
L1557 16930
L1548 16920
" />
</g>
<g style="fill:#000000; fill-opacity:0.0; 
stroke:#000000; stroke-width:59.0551; stroke-opacity:1; 
stroke-linecap:round; stroke-linejoin:round;">
<path d="M2322 18562
L2230 18562
" />
<path d="M2230 18707
L2230 18431
L2362 18431
" />
<path d="M1550 18682
L1756 18419
" />
<path d="M1550 18419
L1756 18682
" />
</g>
<g style="fill:#000000; fill-opacity:0.0; 
stroke:#000000; stroke-width:39.3701; stroke-opacity:1; 
stroke-linecap:round; stroke-linejoin:round;">
<path d="M2257 16742
L2379 16742
L2313 16817
L2341 16817
L2360 16826
L2369 16836
L2379 16855
L2379 16901
L2369 16920
L2360 16930
L2341 16939
L2285 16939
L2266 16930
L2257 16920
" />
<path d="M1548 994
L1670 994
L1604 1069
L1632 1069
L1651 1078
L1661 1088
L1670 1107
L1670 1153
L1661 1172
L1651 1182
L1632 1191
L1576 1191
L1557 1182
L1548 1172
" />
</g>
<g style="fill:#000000; fill-opacity:0.0; 
stroke:#000000; stroke-width:59.0551; stroke-opacity:1; 
stroke-linecap:round; stroke-linejoin:round;">
<path d="M2322 2814
L2230 2814
" />
<path d="M2230 2959
L2230 2683
L2362 2683
" />
<path d="M1550 2934
L1756 2671
" />
<path d="M1550 2671
L1756 2934
" />
</g>
<g style="fill:#000000; fill-opacity:0.0; 
stroke:#000000; stroke-width:39.3701; stroke-opacity:1; 
stroke-linecap:round; stroke-linejoin:round;">
<path d="M2257 994
L2379 994
L2313 1069
L2341 1069
L2360 1078
L2369 1088
L2379 1107
L2379 1153
L2369 1172
L2360 1182
L2341 1191
L2285 1191
L2266 1182
L2257 1172
" />
</g> 
</svg>
