M48
;DRILL file {KiCad 4.0.7+dfsg1-1~bpo9+1} date Tue Mar 20 02:20:16 2018
;FORMAT={-:-/ absolute / inch / decimal}
FMAT,2
INCH,TZ
T1C0.031
T2C0.035
T3C0.039
T4C0.047
T5C0.051
T6C0.118
%
G90
G05
M72
T1
X0.4931Y-1.74
X0.6499Y-0.2152
X0.6499Y-0.412
X0.69Y-1.74
X2.3586Y-0.1876
X2.3586Y-0.3845
X2.4334Y-1.6365
X2.4334Y-1.8333
T2
X0.2185Y-0.565
X0.2185Y-0.7618
X2.6558Y-0.4731
X2.8527Y-0.4731
T3
X0.3815Y-0.7618
X0.7815Y-0.7618
X0.9846Y-0.2109
X0.9846Y-0.6109
X1.0357Y-1.5853
X1.0357Y-1.7585
X1.3133Y-0.9274
X1.3133Y-1.3274
X1.3192Y-0.3235
X1.3704Y-1.6758
X1.5161Y-0.3235
X1.5672Y-1.6758
X1.6972Y-0.9313
X1.6972Y-1.3313
X1.7129Y-0.3235
X1.7641Y-1.6758
X2.0121Y-0.3014
X2.0121Y-0.7014
X2.0495Y-1.5754
X2.0495Y-1.7487
X2.2188Y-0.7014
X2.6188Y-0.7014
T4
X0.2918Y-1.1025
X0.5123Y-1.26
X0.6461Y-1.26
X0.78Y-1.26
X1.0005Y-1.1025
X2.Y-1.15
X2.2205Y-0.9925
X2.3543Y-0.9925
X2.4882Y-0.9925
X2.7087Y-1.15
T5
X1.209Y-0.6404
X1.4098Y-0.6404
X1.6106Y-0.6404
X1.8113Y-0.6404
T6
X0.1969Y-0.1969
X0.1969Y-1.7717
X2.7953Y-0.1969
X2.7953Y-1.7717
T0
M30
